<svg width="42" height="42" viewBox="0 0 42 42" fill="none" xmlns="http://www.w3.org/2000/svg">
<rect width="42" height="42" rx="14" fill="#F1913D"/>
<path d="M21.0027 13.5891C18.3411 13.5891 16.1758 15.7545 16.1758 18.416C16.1758 21.0776 18.3411 23.2429 21.0027 23.2429C23.6642 23.2429 25.8296 21.0776 25.8296 18.416C25.8296 15.7545 23.6643 13.5891 21.0027 13.5891ZM21.0027 21.2106C19.4618 21.2106 18.2081 19.9569 18.2081 18.416C18.2081 16.8751 19.4618 15.6215 21.0027 15.6215C22.5436 15.6215 23.7972 16.8751 23.7972 18.416C23.7972 19.9569 22.5436 21.2106 21.0027 21.2106Z" fill="white"/>
<path d="M21.0019 8C15.2585 8 10.5859 12.6726 10.5859 18.416V18.7039C10.5859 21.6086 12.2513 24.9935 15.5358 28.7644C17.9168 31.498 20.2646 33.4041 20.3633 33.484L21.0019 34L21.6406 33.484C21.7393 33.4042 24.0871 31.4981 26.4681 28.7644C29.7526 24.9935 31.4179 21.6087 31.4179 18.704V18.416C31.4179 12.6726 26.7453 8 21.0019 8ZM29.3856 18.704C29.3856 23.6127 23.0607 29.5549 21.0019 31.3588C18.9426 29.5544 12.6183 23.6124 12.6183 18.704V18.416C12.6183 13.7933 16.3792 10.0324 21.0019 10.0324C25.6247 10.0324 29.3856 13.7933 29.3856 18.416V18.704Z" fill="white"/>
</svg>
