<svg width="20" height="20" viewBox="0 0 20 20" fill="none" xmlns="http://www.w3.org/2000/svg">
<path d="M9.55746 14.1922L3.30746 7.94217C3.2494 7.8841 3.20333 7.81516 3.17191 7.73929C3.14048 7.66342 3.1243 7.5821 3.1243 7.49998C3.1243 7.41786 3.14048 7.33654 3.17191 7.26067C3.20333 7.1848 3.2494 7.11586 3.30746 7.05779C3.36553 6.99972 3.43447 6.95366 3.51034 6.92223C3.58621 6.89081 3.66753 6.87463 3.74965 6.87463C3.83177 6.87463 3.91309 6.89081 3.98896 6.92223C4.06483 6.95366 4.13377 6.99972 4.19184 7.05779L9.99965 12.8664L15.8075 7.05779C15.9247 6.94052 16.0838 6.87463 16.2497 6.87463C16.4155 6.87463 16.5746 6.94052 16.6918 7.05779C16.8091 7.17507 16.875 7.33413 16.875 7.49998C16.875 7.66583 16.8091 7.82489 16.6918 7.94217L10.4418 14.1922C10.3838 14.2503 10.3149 14.2964 10.239 14.3278C10.1631 14.3593 10.0818 14.3755 9.99965 14.3755C9.91752 14.3755 9.83619 14.3593 9.76031 14.3278C9.68444 14.2964 9.61551 14.2503 9.55746 14.1922Z" fill="#2C2E33"/>
</svg>
