<svg width="42" height="42" viewBox="0 0 42 42" fill="none" xmlns="http://www.w3.org/2000/svg">
<rect width="42" height="42" rx="14" fill="#F1913D"/>
<path d="M20.9998 13.5891C18.3382 13.5891 16.1729 15.7545 16.1729 18.416C16.1729 21.0776 18.3382 23.2429 20.9998 23.2429C23.6613 23.2429 25.8267 21.0776 25.8267 18.416C25.8267 15.7545 23.6614 13.5891 20.9998 13.5891ZM20.9998 21.2106C19.4589 21.2106 18.2052 19.9569 18.2052 18.416C18.2052 16.8751 19.4589 15.6215 20.9998 15.6215C22.5407 15.6215 23.7943 16.8751 23.7943 18.416C23.7943 19.9569 22.5407 21.2106 20.9998 21.2106Z" fill="white"/>
<path d="M21 8C15.2566 8 10.584 12.6726 10.584 18.416V18.7039C10.584 21.6086 12.2493 24.9935 15.5338 28.7644C17.9149 31.498 20.2626 33.4041 20.3614 33.484L21 34L21.6386 33.484C21.7374 33.4042 24.0851 31.4981 26.4661 28.7644C29.7506 24.9935 31.416 21.6087 31.416 18.704V18.416C31.416 12.6726 26.7434 8 21 8ZM29.3836 18.704C29.3836 23.6127 23.0588 29.5549 21 31.3588C18.9406 29.5544 12.6164 23.6124 12.6164 18.704V18.416C12.6164 13.7933 16.3773 10.0324 21 10.0324C25.6227 10.0324 29.3836 13.7933 29.3836 18.416V18.704Z" fill="white"/>
</svg>
