<?xml version="1.0" standalone="no"?>
<!DOCTYPE svg PUBLIC "-//W3C//DTD SVG 1.1//EN" "http://www.w3.org/Graphics/SVG/1.1/DTD/svg11.dtd" >
<svg xmlns="http://www.w3.org/2000/svg">
<metadata>Generated by IcoMoon</metadata>
<defs>
<font id="icomoon" horiz-adv-x="1024">
<font-face units-per-em="1024" ascent="960" descent="-64" />
<missing-glyph horiz-adv-x="1024" />
<glyph unicode="&#x20;" horiz-adv-x="512" d="" />
<glyph unicode="&#xe900;" glyph-name="play-1" d="M680.901 468.017l-212.631 154.565c-3.82 2.785-8.335 4.46-13.048 4.836-4.713 0.379-9.436-0.556-13.652-2.696-4.214-2.14-7.754-5.407-10.23-9.434-2.473-4.029-3.786-8.663-3.789-13.391v-309.028c-0.015-4.736 1.285-9.382 3.758-13.42 2.47-4.040 6.016-7.311 10.24-9.452 4.221-2.143 8.957-3.069 13.676-2.678 4.718 0.394 9.234 2.089 13.046 4.897l212.631 154.429c3.284 2.358 5.962 5.463 7.808 9.060s2.811 7.583 2.811 11.625c0 4.042-0.965 8.028-2.811 11.625s-4.524 6.702-7.808 9.060zM512.018 959.931c-282.827 0-512.018-229.191-512.018-512.018 0-282.721 229.191-511.846 512.018-511.846 282.757 0 511.982 229.158 511.982 511.846 0.033 282.827-229.225 512.018-511.982 512.018zM512.018 21.494c-235.53 0-426.489 190.858-426.489 426.419 0 235.461 190.958 426.557 426.489 426.557 235.494 0 426.419-191.060 426.419-426.557 0.033-235.561-190.925-426.419-426.419-426.419z" />
<glyph unicode="&#xe901;" glyph-name="fb" horiz-adv-x="1081" d="M619.833-64v467.060h156.712l23.512 182.076h-180.224v116.229c0 52.698 14.575 88.612 90.231 88.612l96.336 0.040v162.855c-16.663 2.165-73.847 7.129-140.407 7.129-138.988 0-234.141-84.837-234.141-240.602v-134.262h-157.185v-182.076h157.185v-467.060h187.981z" />
<glyph unicode="&#xe902;" glyph-name="CaretDown" horiz-adv-x="910" d="M769.855 474.668l-284.447-284.443c-3.964-3.977-8.674-7.134-13.86-9.29-5.187-2.15-10.747-3.26-16.362-3.26s-11.176 1.109-16.362 3.26c-5.187 2.156-9.896 5.313-13.86 9.29l-284.444 284.443c-8.016 8.015-12.518 18.887-12.518 30.222s4.503 22.207 12.518 30.222c8.016 8.015 18.887 12.518 30.222 12.518s22.207-4.503 30.222-12.518l254.258-254.258 254.257 254.293c8.016 8.016 18.887 12.518 30.225 12.518 11.332 0 22.204-4.503 30.219-12.518s12.521-18.887 12.521-30.222c0-11.336-4.506-22.207-12.521-30.222l-0.068-0.035z" />
<glyph unicode="&#xe903;" glyph-name="ins" horiz-adv-x="1081" d="M1051.42 658.941c-2.395 54.409-11.196 91.815-23.802 124.228-12.999 34.405-33.007 65.208-59.21 90.815-25.611 26.005-56.616 46.212-90.624 59.011-32.597 12.604-69.808 21.403-124.217 23.802-54.818 2.602-72.22 3.204-211.245 3.204-139.027 0-156.429-0.602-211.041-3.001-54.409-2.399-91.815-11.205-124.22-23.802-34.413-13.003-65.216-33.006-90.823-59.214-26.005-25.607-46.204-56.613-59.011-90.619-12.604-32.608-21.403-69.811-23.801-124.22-2.602-54.815-3.204-72.217-3.204-211.244s0.602-156.43 3.001-211.043c2.399-54.409 11.205-91.813 23.809-124.228 13.003-34.401 33.201-65.206 59.207-90.812 25.607-26.004 56.613-46.211 90.619-59.011 32.608-12.607 69.811-21.402 124.228-23.802 54.604-2.406 72.014-2.998 211.041-2.998s156.429 0.592 211.042 2.998c54.409 2.401 91.813 11.196 124.217 23.802 68.818 26.607 123.227 81.015 149.834 149.823 12.595 32.609 21.402 69.82 23.802 124.228 2.401 54.613 3.004 72.016 3.004 211.043s-0.205 156.429-2.606 211.041zM959.209 240.862c-2.202-50.011-10.604-77.016-17.607-95.022-17.203-44.612-52.611-80.014-97.223-97.223-18-6.997-45.204-15.4-95.016-17.596-54.010-2.406-70.212-2.998-206.838-2.998-136.628 0-153.030 0.592-206.845 2.998-50.010 2.196-77.015 10.598-95.019 17.596-22.2 8.209-42.407 21.208-58.808 38.212-17.003 16.606-30.005 36.608-38.211 58.806-7.001 18.005-15.402 45.215-17.597 95.022-2.407 54.010-3.001 70.218-3.001 206.845s0.594 153.030 3.001 206.837c2.195 50.010 10.596 77.015 17.597 95.019 8.205 22.207 21.208 42.407 38.414 58.816 16.597 17.004 36.601 30.006 58.808 38.203 18.004 7.001 45.212 15.402 95.019 17.605 54.011 2.399 70.217 3.001 206.837 3.001 136.834 0 153.031-0.602 206.847-3.001 50.005-2.203 77.010-10.604 95.016-17.605 22.198-8.197 42.405-21.2 58.812-38.203 16.998-16.605 30.003-36.609 38.207-58.816 7.003-18.004 15.406-45.204 17.607-95.019 2.401-54.011 2.998-70.209 2.998-206.837s-0.597-152.629-2.998-206.64zM542.385 710.944c-145.224 0-263.051-117.82-263.051-263.051 0-145.233 117.828-263.050 263.051-263.050 145.231 0 263.054 117.817 263.054 263.050s-117.823 263.051-263.054 263.051zM542.385 277.259c-94.214 0-170.635 76.413-170.635 170.634s76.422 170.635 170.635 170.635c94.219 0 170.632-76.413 170.632-170.635s-76.413-170.634-170.632-170.634zM877.272 721.353c0-33.913-27.494-61.41-61.417-61.41-33.911 0-61.412 27.498-61.412 61.41 0 33.921 27.5 61.41 61.412 61.41 33.923 0 61.417-27.49 61.417-61.41z" />
<glyph unicode="&#xe904;" glyph-name="X" d="M607.425 526.406l373.009 433.594h-88.388l-323.886-376.484-258.686 376.484h-298.363l391.184-569.31-391.184-454.69h88.397l342.030 397.579 273.191-397.579h298.365l-405.669 590.406zM486.355 385.673l-354.997 507.784h135.772l624.956-893.94h-135.771l-269.96 386.156z" />
<glyph unicode="&#xe905;" glyph-name="linked" horiz-adv-x="1081" d="M950.073 38.4v300.032c0 147.456-31.744 260.096-203.776 260.096-82.944 0-138.24-45.056-160.768-88.064h-2.048v74.752h-162.814v-546.816h169.982v271.36c0 71.68 13.312 140.288 101.376 140.288 87.040 0 88.064-80.896 88.064-144.384v-266.24h169.984v-1.024zM144.222 585.222h169.984v-546.817h-169.984v546.817zM229.193 857.597c-54.272 0-98.304-44.032-98.304-98.304s44.032-99.328 98.304-99.328c54.272 0 98.304 45.056 98.304 99.328s-44.032 98.304-98.304 98.304z" />
<glyph unicode="&#xe906;" glyph-name="star" horiz-adv-x="956" d="M612.17 558.829c-10.559 0-21.768 8.15-25.040 18.191l-103.354 318.076c-3.271 10.044-8.55 10.044-11.82 0l-103.336-318.076c-3.271-10.044-14.48-18.191-25.039-18.191h-334.451c-10.559 0-12.204-5.031-3.655-11.249l270.561-196.55c8.55-6.217 12.835-19.396 9.563-29.439l-103.333-318.054c-3.271-10.049 1.014-13.162 9.564-6.95l270.561 196.553c8.55 6.212 22.401 6.212 30.951 0l270.561-196.574c8.547-6.212 12.834-3.099 9.564 6.95l-103.336 318.056c-3.271 10.044 1.014 23.222 9.563 29.44l270.563 196.55c8.547 6.217 6.902 11.248-3.659 11.248l-334.429 0.019z" />
<glyph unicode="&#xe907;" glyph-name="play" horiz-adv-x="853" d="M761.828 544.016c70.258-44.71 70.258-147.271 0-191.982l-572.154-364.095c-75.745-48.202-174.862 6.212-174.862 95.989v728.195c0 89.781 99.117 144.191 174.862 95.99l572.154-364.096z" />
<glyph unicode="&#xe908;" glyph-name="MagnifyingGlass" d="M912.99 80.969l-205.517 205.521c58.607 67.401 88.755 154.918 84.092 244.113-4.668 89.195-43.78 173.094-109.094 234.012-65.318 60.918-151.735 94.097-241.037 92.541-89.303-1.555-174.513-37.723-237.669-100.879s-99.323-148.366-100.879-237.668c-1.555-89.301 31.623-175.718 92.541-241.037s144.817-104.431 234.013-109.094c89.19-4.663 176.713 25.485 244.113 84.092l205.517-205.521c4.553-4.237 10.569-6.545 16.785-6.434 6.221 0.107 12.151 2.628 16.55 7.023 4.395 4.399 6.912 10.33 7.023 16.546 0.111 6.221-2.197 12.237-6.438 16.785zM152.032 512.009c0 58.545 17.36 115.773 49.885 164.451s78.754 86.616 132.841 109.019c54.087 22.404 113.601 28.265 171.022 16.844 57.417-11.421 110.161-39.613 151.556-81.009s69.585-94.138 81.007-151.557c11.422-57.42 5.559-116.936-16.845-171.020-22.4-54.089-60.339-100.318-109.018-132.843s-105.907-49.886-164.45-49.886c-78.473 0.098-153.707 31.313-209.197 86.805-55.49 55.488-86.706 130.722-86.801 209.195z" />
<glyph unicode="&#xe909;" glyph-name="arrow-right-1" d="M276.913 794.881l75.947 75.52 421.975-422.401-422.402-422.4-75.52 75.52 346.882 346.88-346.882 346.881z" />
<glyph unicode="&#xe90a;" glyph-name="arrow-left-1" d="M747.085 794.881l-75.947 75.52-421.972-422.401 422.398-422.4 75.52 75.52-346.878 346.88 346.878 346.881z" />
<glyph unicode="&#xe90b;" glyph-name="agent" d="M512 622.546c20.401 0 40.156-7.148 55.836-20.198 15.677-13.051 26.291-31.181 29.99-51.244 3.702-20.060 0.259-40.786-9.733-58.57-9.989-17.787-25.894-31.511-44.951-38.792-19.059-7.278-40.064-7.649-59.366-1.052s-35.686 19.75-46.3 37.171c-10.616 17.421-14.792 38.008-11.807 58.189 2.988 20.18 12.948 38.676 28.155 52.275 3.451 3.090 5.53 7.424 5.783 12.047s-1.339 9.16-4.429 12.608c-3.090 3.448-7.424 5.527-12.047 5.783-4.623 0.253-9.16-1.341-12.608-4.431-14.17-12.659-25.185-28.457-32.169-46.129s-9.743-36.731-8.059-55.657c1.684-18.926 7.767-37.199 17.764-53.358s23.631-29.76 39.813-39.718c-22.897-12.677-41.976-31.26-55.258-53.814-13.279-22.554-20.273-48.253-20.25-74.427 0.018-12.524 5.002-24.527 13.86-33.382s20.864-13.834 33.39-13.85h92.385c4.631 0 9.070 1.841 12.344 5.112 3.272 3.274 5.112 7.713 5.112 12.344 0 4.628-1.841 9.068-5.112 12.342-3.274 3.272-7.713 5.112-12.344 5.112h-92.385c-3.272 0-6.408 1.298-8.719 3.607-2.314 2.312-3.617 5.445-3.622 8.714-0.461 27.845 9.828 54.797 28.728 75.249s44.959 32.829 72.753 34.56c14.021 0.435 27.983-1.951 41.062-7.017 13.082-5.064 25.011-12.705 35.080-22.467 10.071-9.764 18.079-21.45 23.547-34.368 5.468-12.915 8.287-26.798 8.287-40.824v-5.133c0-3.267-1.3-6.403-3.61-8.712-2.312-2.312-5.445-3.61-8.714-3.61h-22.587c-4.628 0-9.068-1.841-12.342-5.112-3.274-3.274-5.112-7.713-5.112-12.342 0-4.631 1.838-9.070 5.112-12.344 3.274-3.272 7.713-5.112 12.342-5.112h22.587c12.524 0.015 24.527 4.995 33.382 13.85s13.837 20.861 13.85 33.382v5.133c0.026 25.462-6.927 50.445-20.106 72.23-13.176 21.788-32.072 39.547-54.633 51.348 22.464 14.067 39.739 35.062 49.216 59.817 9.475 24.753 10.637 51.919 3.305 77.391-7.329 25.472-22.751 47.867-43.935 63.798s-46.979 24.532-73.485 24.507c-4.628 0-9.068-1.838-12.342-5.112-3.272-3.274-5.112-7.713-5.112-12.342 0-4.631 1.841-9.070 5.112-12.342 3.274-3.274 7.713-5.112 12.342-5.112zM843.638 797.091h34.911c4.628 0 9.068 1.839 12.342 5.112s5.112 7.713 5.112 12.342c0 4.629-1.838 9.069-5.112 12.342s-7.713 5.112-12.342 5.112h-34.911c-4.628 0-9.068-1.839-12.342-5.112s-5.112-7.713-5.112-12.342c0-4.629 1.838-9.069 5.112-12.342s7.713-5.112 12.342-5.112zM564.365 797.091h209.454c4.631 0 9.070 1.839 12.344 5.112 3.272 3.273 5.112 7.713 5.112 12.342s-1.841 9.069-5.112 12.342c-3.274 3.273-7.713 5.112-12.344 5.112h-209.454c-4.628 0-9.070-1.839-12.342-5.112-3.274-3.273-5.112-7.713-5.112-12.342s1.838-9.069 5.112-12.342c3.272-3.273 7.713-5.112 12.342-5.112zM878.548 744.727h-34.911c-4.628 0-9.068-1.839-12.342-5.112s-5.112-7.713-5.112-12.342c0-4.629 1.838-9.069 5.112-12.342s7.713-5.112 12.342-5.112h34.911c4.628 0 9.068 1.839 12.342 5.112s5.112 7.713 5.112 12.342c0 4.629-1.838 9.069-5.112 12.342s-7.713 5.112-12.342 5.112zM564.365 709.818h209.454c4.631 0 9.070 1.839 12.344 5.112 3.272 3.273 5.112 7.713 5.112 12.342s-1.841 9.069-5.112 12.342c-3.274 3.273-7.713 5.112-12.344 5.112h-209.454c-4.628 0-9.070-1.839-12.342-5.112-3.274-3.273-5.112-7.713-5.112-12.342s1.838-9.069 5.112-12.342c3.272-3.273 7.713-5.112 12.342-5.112zM878.548 657.454h-34.911c-4.628 0-9.068-1.838-12.342-5.112s-5.112-7.713-5.112-12.342c0-4.631 1.838-9.070 5.112-12.342 3.274-3.274 7.713-5.112 12.342-5.112h34.911c4.628 0 9.068 1.838 12.342 5.112 3.274 3.272 5.112 7.711 5.112 12.342 0 4.628-1.838 9.068-5.112 12.342s-7.713 5.112-12.342 5.112zM773.819 657.454h-87.273c-4.628 0-9.068-1.838-12.342-5.112-3.272-3.274-5.112-7.713-5.112-12.342 0-4.631 1.841-9.070 5.112-12.342 3.274-3.274 7.713-5.112 12.342-5.112h87.273c4.631 0 9.070 1.838 12.344 5.112 3.272 3.272 5.112 7.711 5.112 12.342 0 4.628-1.841 9.068-5.112 12.342-3.274 3.274-7.713 5.112-12.344 5.112zM145.455 797.091h34.909c4.629 0 9.069 1.839 12.342 5.112s5.112 7.713 5.112 12.342c0 4.629-1.839 9.069-5.112 12.342s-7.713 5.112-12.342 5.112h-34.909c-4.629 0-9.069-1.839-12.342-5.112s-5.112-7.713-5.112-12.342c0-4.629 1.839-9.069 5.112-12.342s7.713-5.112 12.342-5.112zM250.182 797.091h209.456c4.628 0 9.068 1.839 12.342 5.112s5.112 7.713 5.112 12.342c0 4.629-1.838 9.069-5.112 12.342s-7.713 5.112-12.342 5.112h-209.456c-4.629 0-9.069-1.839-12.342-5.112s-5.112-7.713-5.112-12.342c0-4.629 1.839-9.069 5.112-12.342s7.713-5.112 12.342-5.112zM145.455 709.818h34.909c4.629 0 9.069 1.839 12.342 5.112s5.112 7.713 5.112 12.342c0 4.629-1.839 9.069-5.112 12.342s-7.713 5.112-12.342 5.112h-34.909c-4.629 0-9.069-1.839-12.342-5.112s-5.112-7.713-5.112-12.342c0-4.629 1.839-9.069 5.112-12.342s7.713-5.112 12.342-5.112zM250.182 709.818h209.456c4.628 0 9.068 1.839 12.342 5.112s5.112 7.713 5.112 12.342c0 4.629-1.838 9.069-5.112 12.342s-7.713 5.112-12.342 5.112h-209.456c-4.629 0-9.069-1.839-12.342-5.112s-5.112-7.713-5.112-12.342c0-4.629 1.839-9.069 5.112-12.342s7.713-5.112 12.342-5.112zM145.455 622.546h34.909c4.629 0 9.069 1.838 12.342 5.112 3.273 3.272 5.112 7.711 5.112 12.342 0 4.628-1.839 9.068-5.112 12.342s-7.713 5.112-12.342 5.112h-34.909c-4.629 0-9.069-1.838-12.342-5.112s-5.112-7.713-5.112-12.342c0-4.631 1.839-9.070 5.112-12.342 3.273-3.274 7.713-5.112 12.342-5.112zM250.182 622.546h87.272c4.631 0 9.070 1.838 12.344 5.112 3.272 3.272 5.112 7.711 5.112 12.342 0 4.628-1.841 9.068-5.112 12.342-3.274 3.274-7.713 5.112-12.344 5.112h-87.272c-4.629 0-9.069-1.838-12.342-5.112s-5.112-7.713-5.112-12.342c0-4.631 1.839-9.070 5.112-12.342 3.273-3.274 7.713-5.112 12.342-5.112zM512 151.27c4.628 0 9.068 1.838 12.342 5.112s5.112 7.713 5.112 12.342c0 4.631-1.838 9.070-5.112 12.344-3.274 3.272-7.713 5.112-12.342 5.112-66.77 0.015-131.013 25.533-179.597 71.337s-77.84 108.431-81.787 175.086c-0.591 8.945-4.575 17.324-11.138 23.429s-15.209 9.475-24.172 9.421h-51.892c-4.762-0.013-9.472-0.988-13.848-2.865-4.376-1.879-8.328-4.621-11.618-8.061-3.23-3.354-5.739-7.332-7.372-11.689-1.633-4.36-2.356-9.006-2.123-13.655 2.642-52.408 15.963-103.724 39.147-150.799s55.74-88.916 95.672-122.959c3.154-2.691 7.165-4.165 11.313-4.155 3.546 0.056 6.991 1.183 9.887 3.236 2.893 2.051 5.097 4.931 6.321 8.261 1.224 3.328 1.411 6.95 0.538 10.388-0.876 3.438-2.77 6.531-5.435 8.87-36.269 30.894-65.84 68.874-86.899 111.611s-33.161 89.326-35.563 136.906l52.364 0.036c4.472-75.538 37.622-146.519 92.678-198.433 55.053-51.914 127.857-80.842 203.528-80.876zM860.567 465.454h-51.876c-8.965 0.054-17.613-3.318-24.177-9.426-6.564-6.111-10.545-14.495-11.133-23.442-3.31-52.352-22.167-102.525-54.157-144.1s-75.658-72.655-125.414-89.267c-2.179-0.717-4.193-1.856-5.932-3.351s-3.164-3.318-4.198-5.363c-1.032-2.045-1.651-4.275-1.823-6.561s0.108-4.585 0.824-6.761c0.717-2.179 1.853-4.193 3.348-5.932s3.318-3.164 5.366-4.196c2.045-1.034 4.275-1.654 6.561-1.825s4.582 0.108 6.761 0.824c56.397 18.885 105.905 54.116 142.226 101.212s57.815 103.933 61.747 163.277l51.999 0.315c-2.849-57.362-19.802-113.137-49.352-162.383-29.553-49.249-70.792-90.45-120.067-119.954s-105.065-46.405-162.429-49.201c-57.367-2.796-114.534 8.596-166.446 33.17-4.183 1.987-8.983 2.227-13.345 0.676-4.362-1.554-7.928-4.777-9.912-8.957-1.987-4.183-2.23-8.983-0.676-13.345 1.551-4.362 4.774-7.928 8.957-9.915 57.106-27.039 120-39.578 183.109-36.506 63.109 3.075 124.488 21.665 178.696 54.129 54.208 32.461 99.574 77.791 132.076 131.976 32.504 54.182 51.141 115.546 54.264 178.652 0.223 4.654-0.507 9.306-2.145 13.665-1.638 4.362-4.152 8.343-7.386 11.697-3.295 3.436-7.247 6.172-11.622 8.044s-9.085 2.839-13.844 2.849z" />
<glyph unicode="&#xe90c;" glyph-name="find-plus" d="M608 512c0-8.487-3.374-16.626-9.375-22.627s-14.136-9.373-22.625-9.373h-96v-96c0-8.489-3.372-16.625-9.373-22.625s-14.14-9.375-22.627-9.375c-8.487 0-16.627 3.374-22.628 9.375s-9.372 14.136-9.372 22.625v96h-96c-8.487 0-16.627 3.372-22.628 9.373s-9.372 14.14-9.372 22.627c0 8.487 3.371 16.627 9.372 22.628s14.14 9.372 22.628 9.372h96v96c0 8.487 3.371 16.627 9.372 22.628s14.14 9.372 22.628 9.372c8.487 0 16.626-3.371 22.627-9.372s9.373-14.14 9.373-22.628v-96h96c8.489 0 16.625-3.371 22.625-9.372s9.375-14.14 9.375-22.628zM918.641 41.359c-2.975-2.975-6.502-5.335-10.388-6.943-3.881-1.613-8.049-2.442-12.252-2.442s-8.371 0.829-12.252 2.442c-3.886 1.608-7.414 3.968-10.388 6.943l-200.238 200.279c-69.693-58.045-159.084-86.994-249.572-80.814-90.49 6.175-175.115 47.002-236.27 113.987-61.156 66.98-94.133 154.962-92.072 245.641 2.061 90.677 39.001 177.070 103.136 241.205s150.527 101.075 241.205 103.136c90.679 2.061 178.661-30.916 245.641-92.072 66.985-61.155 107.812-145.78 113.987-236.27 6.18-90.489-22.769-179.879-80.814-249.572l200.279-200.238c2.975-2.975 5.335-6.502 6.943-10.388 1.613-3.881 2.442-8.049 2.442-12.252s-0.829-8.371-2.442-12.252c-1.608-3.886-3.968-7.414-6.943-10.388zM448 224c56.961 0 112.645 16.891 160.005 48.538s84.275 76.626 106.071 129.249c21.801 52.626 27.505 110.533 16.389 166.399-11.11 55.866-38.543 107.183-78.817 147.461-40.279 40.278-91.597 67.707-147.462 78.819s-113.774 5.409-166.399-16.389-97.605-58.712-129.25-106.073c-31.646-47.362-48.537-103.044-48.537-160.005 0.084-76.355 30.454-149.56 84.447-203.551 53.992-53.996 127.197-84.362 203.553-84.449z" />
<glyph unicode="&#xe90d;" glyph-name="bed" horiz-adv-x="975" d="M913.023 456.592v306.524c0 74.56-60.66 135.217-135.217 135.217h-584.259c-74.56 0-135.217-60.659-135.217-135.217v-310.479c-36.114-37.756-58.329-88.912-58.329-145.159v-232.428c0-42.662 34.71-77.375 77.377-77.375 42.665 0 77.375 34.714 77.375 77.375v24.005h665.735v-24.005c0-42.662 34.709-77.375 77.375-77.375s77.375 34.709 77.375 77.375v232.428c0 58.236-23.815 111.011-62.215 149.114zM193.547 860.238h584.259c53.55 0 97.119-43.569 97.119-97.122v-276.546c-11.742 7.233-24.171 13.288-37.103 18.078v63.341c0 56.153-45.685 101.836-101.834 101.836h-165.576c-34.089 0-64.297-16.852-82.793-42.644-18.491 25.792-48.699 42.644-82.786 42.644h-165.577c-56.152 0-101.836-45.682-101.836-101.836v-63.341c-14.374-5.323-28.12-12.207-40.992-20.528v278.996c-0.002 53.553 43.566 97.122 97.12 97.122zM210.158 517.634c-11.8 0-23.373-0.994-34.647-2.873v53.227c0 35.147 28.594 63.741 63.741 63.741h165.577c35.147 0 63.741-28.594 63.741-63.741v-50.356l-258.412 0.002zM506.665 567.99c0 35.147 28.594 63.741 63.742 63.741h165.576c35.148 0 63.742-28.594 63.742-63.741v-53.227c-11.449 1.91-23.040 2.871-34.645 2.873h-258.414v50.354zM210.158 479.539h554.921c94.876 0 172.061-77.185 172.061-172.061v-56.51h-191.039c-10.518 0-19.046-8.528-19.046-19.046s8.528-19.051 19.046-19.051h191.044v-75.722h-899.050v75.722h517.527c10.523 0 19.051 8.533 19.051 19.051s-8.528 19.046-19.051 19.046h-517.527v56.51c0 94.876 77.187 172.061 172.063 172.061zM116.657 75.049c0-21.655-17.621-39.278-39.28-39.278s-39.282 17.623-39.282 39.278v24.005h78.562v-24.005zM897.863 35.772c-21.66 0-39.283 17.623-39.283 39.278v24.005h78.565v-24.005c0-21.655-17.623-39.278-39.283-39.278zM650.854 212.86c10.523 0 19.056 8.533 19.056 19.061 0 10.523-8.533 19.056-19.056 19.056-10.528 0-19.056-8.533-19.056-19.056 0-10.528 8.528-19.061 19.056-19.061z" />
<glyph unicode="&#xe90e;" glyph-name="bath" horiz-adv-x="975" d="M917.445 465.988h-758.725v71.633c0 22.351-18.185 40.527-40.527 40.527h-1.326v241.787c0 41.733 33.952 75.684 75.686 75.684s75.684-33.95 75.684-75.684v-42.166c-38.072-5.855-68.667-36.429-73.571-75.676l-3.928-31.451c-0.484-3.858-0.141-7.774 1.004-11.489s3.068-7.145 5.64-10.060c2.573-2.914 5.736-5.247 9.279-6.845s7.386-2.425 11.273-2.425h127.208c7.857 0 15.35 3.377 20.552 9.27s7.625 13.743 6.65 21.549l-3.928 31.449c-4.406 35.21-29.472 63.438-62.084 73.105v44.737c0 62.739-51.042 113.781-113.779 113.781s-113.781-51.042-113.781-113.779v-241.787c-22.12-0.267-40.038-18.349-40.038-40.527v-74.851c-22.526-7.885-38.733-29.369-38.733-54.565 0-31.856 25.924-57.783 57.791-57.783h1.933v-91.082c0-86.947 63.067-159.447 145.848-174.168v-54.716h-91.983c-10.522 0-19.047-8.528-19.047-19.051 0-10.518 8.526-19.046 19.047-19.046h764.882c10.513 0 19.046 8.528 19.046 19.046 0 10.523-8.533 19.051-19.046 19.051h-108.802v54.716c82.783 14.716 145.847 87.22 145.847 174.168v91.082h1.936c31.866 0 57.788 25.927 57.788 57.783 0 31.861-25.922 57.783-57.788 57.783h-0.005zM330.61 697.367l2.434-19.449h-103.006l2.424 19.449c3.088 24.695 24.181 43.318 49.078 43.318 24.888 0 45.981-18.623 49.069-43.318zM76.838 537.621c0 1.347 1.086 2.432 2.432 2.432h38.922c1.339 0 2.432-1.085 2.432-2.432v-71.623h-43.787v71.623zM243.669 30.457v51.985h60.981l-26.198-51.985h-34.783zM627.931 82.442l26.2-51.995h-333.023l26.198 51.995h280.625zM696.783 30.457l-26.19 51.985h60.977v-51.985h-34.787zM917.445 388.52h-146.608c-10.513 0-19.046-8.524-19.046-19.046s8.533-19.051 19.046-19.051h106.579v-91.082c0-76.537-62.269-138.801-138.806-138.801h-501.983c-76.539 0-138.81 62.264-138.81 138.801v91.082h520.638c10.523 0 19.051 8.528 19.051 19.051s-8.528 19.046-19.051 19.046h-560.666c-10.863 0-19.695 8.831-19.695 19.685 0 10.859 8.832 19.69 19.695 19.69h859.655c10.864 0 19.7-8.831 19.7-19.69 0-10.854-8.836-19.685-19.7-19.685zM625.693 522.444c32.885 0 59.641 26.748 59.641 59.636s-26.756 59.634-59.641 59.634c-32.89 0-59.636-26.749-59.636-59.634s26.756-59.636 59.636-59.636zM625.693 603.619c11.874 0 21.548-9.665 21.548-21.539 0-11.884-9.665-21.543-21.548-21.543s-21.543 9.659-21.543 21.543c0 11.874 9.665 21.539 21.543 21.539zM797.945 642.213c-41.56 0-75.376-33.817-75.376-75.387 0-41.562 33.816-75.381 75.376-75.381 41.57 0 75.391 33.817 75.391 75.381 0 41.57-33.821 75.387-75.391 75.387zM797.945 529.541c-20.558 0-37.283 16.727-37.283 37.285 0 20.566 16.725 37.292 37.283 37.292 20.568 0 37.293-16.726 37.293-37.292 0-20.558-16.725-37.285-37.293-37.285zM758.467 675.554c53.887 0 97.724 43.838 97.724 97.722 0 53.886-43.842 97.724-97.724 97.724s-97.724-43.84-97.724-97.724c0-53.884 43.842-97.722 97.724-97.722zM758.467 832.906c32.88 0 59.626-26.75 59.626-59.63 0-32.878-26.746-59.627-59.626-59.627s-59.626 26.749-59.626 59.627c0 32.88 26.756 59.63 59.626 59.63zM694.647 388.515h-0.044c-10.518 0-19.022-8.528-19.022-19.046 0-10.523 8.558-19.051 19.066-19.051 10.523 0 19.051 8.528 19.051 19.051 0 10.518-8.528 19.046-19.051 19.046z" />
<glyph unicode="&#xe90f;" glyph-name="garage" horiz-adv-x="975" d="M965.686 663.62l-468.568 269.463c-2.892 1.662-6.164 2.536-9.499 2.536-3.332 0-6.606-0.874-9.495-2.536l-468.571-269.463c-2.903-1.67-5.315-4.075-6.992-6.974s-2.56-6.189-2.56-9.538v-667.681c0-10.518 8.528-19.046 19.048-19.046h937.144c10.518 0 19.046 8.528 19.046 19.046v667.681c0 3.349-0.883 6.638-2.56 9.538s-4.086 5.304-6.992 6.974zM311.158 18.778c0-11.196-9.108-20.304-20.304-20.304s-20.305 9.109-20.305 20.304v30.744h40.609v-30.744zM704.688 18.778c0-11.196-9.109-20.304-20.304-20.304s-20.304 9.109-20.304 20.304v30.744h40.609v-30.744zM723.739 87.62h-172.32c-10.518 0-19.046-8.533-19.046-19.051s8.528-19.046 19.046-19.046h74.567v-30.744c0-7.139 1.292-13.975 3.643-20.304h-284.021c2.416 6.495 3.651 13.375 3.645 20.304v30.744h64.537c10.52 0 19.047 8.528 19.047 19.046s-8.527 19.051-19.047 19.051h-177.6c-10.503 0-19.048 8.543-19.048 19.046v67.106c0 4.691 1.72 9.196 4.844 12.693l48.187 53.916h434.895l48.182-53.916c3.126-3.491 4.847-8.012 4.847-12.693v-67.106c0-10.503-8.548-19.046-19.051-19.046h-15.306zM556.144 310.628c3.721-3.716 8.597-5.578 13.468-5.578 4.876 0 9.752 1.863 13.468 5.578l78.19 78.19c4.081-7.090 7.066-14.76 8.85-22.747l19.671-87.596h-255.869l150.231 150.235h7.704c15.765 0 30.544-4.496 43.028-12.395l-78.746-78.746c-7.436-7.436-7.431-19.5 0.005-26.941zM380.046 278.474h-94.593l19.695 87.615c8.288 36.869 40.468 62.62 78.257 62.62h146.87l-150.23-150.235zM937.145-1.526h-64.766v560.002c0 10.518-8.528 19.047-19.046 19.047h-62.859c-10.518 0-19.046-8.529-19.046-19.047s8.528-19.048 19.046-19.048h43.813v-540.954h-95.149c2.419 6.5 3.652 13.375 3.647 20.304v30.881c29.769 1.931 53.404 26.756 53.404 57.008v67.106c0 14.068-5.159 27.589-14.536 38.078l-50.566 56.578-23.796 105.989c-12.215 54.394-59.685 92.384-115.434 92.384h-208.45c-55.737 0-103.202-37.981-115.425-92.36l-23.83-106.013-50.568-56.578c-9.368-10.469-14.544-24.030-14.537-38.078v-67.106c0-30.252 23.634-55.077 53.406-57.008v-30.881c0-7.139 1.291-13.975 3.646-20.304h-95.147v540.954h491.431c10.518 0 19.046 8.53 19.046 19.048s-8.528 19.047-19.046 19.047h-510.479c-10.52 0-19.047-8.529-19.047-19.047v-560.002h-64.762v637.615l449.524 258.507 449.526-258.509v-637.613zM727.050 571.942c-3.579 3.565-8.421 5.572-13.468 5.581-5.013 0-9.923-2.036-13.468-5.581-3.54-3.543-5.578-8.457-5.578-13.467s2.038-9.924 5.578-13.465c3.584-3.557 8.421-5.562 13.468-5.583 5.027 0 9.923 2.038 13.468 5.583 3.56 3.541 5.578 8.455 5.578 13.465s-2.019 9.924-5.578 13.467zM487.863 788.060c-44.114 0-80.002-35.888-80.002-80s35.887-80 80.002-80c44.11 0 79.999 35.887 79.999 80s-35.889 80-79.999 80zM487.863 666.155c-23.109 0-41.906 18.798-41.906 41.905s18.798 41.905 41.906 41.905c23.103 0 41.901-18.798 41.901-41.905s-18.798-41.905-41.901-41.905zM501.087 82.037c-3.584 3.555-8.421 5.564-13.468 5.578-5.009 0-9.924-2.038-13.467-5.578-3.56-3.584-5.565-8.421-5.581-13.468 0-5.013 2.038-9.923 5.581-13.468 3.58-3.555 8.418-5.564 13.467-5.578 5.008 0 9.923 2.038 13.468 5.578 3.56 3.584 5.564 8.421 5.578 13.468 0 5.013-2.038 9.923-5.578 13.468zM596.192 187.046h-216.661c-10.52 0-19.048-8.528-19.048-19.046s8.528-19.046 19.048-19.046h216.661c10.518 0 19.046 8.528 19.046 19.046s-8.528 19.046-19.046 19.046zM293.467 181.467c-3.543 3.54-8.457 5.578-13.467 5.578s-9.924-2.033-13.467-5.578c-3.563-3.579-5.568-8.421-5.581-13.468 0-5.013 2.038-9.923 5.581-13.468 3.543-3.54 8.457-5.578 13.467-5.578s9.924 2.038 13.467 5.578c3.543 3.545 5.581 8.455 5.581 13.468 0 5.008-2.038 9.923-5.581 13.468zM714.42 181.467c-3.545 3.54-8.46 5.578-13.468 5.578s-9.923-2.033-13.468-5.578c-3.54-3.545-5.578-8.46-5.578-13.468 0-5.013 2.038-9.923 5.578-13.468 3.545-3.54 8.46-5.578 13.468-5.578s9.923 2.038 13.468 5.578c3.54 3.545 5.578 8.455 5.578 13.468 0 5.008-2.038 9.923-5.578 13.468z" />
<glyph unicode="&#xe910;" glyph-name="location" d="M800 64h-197.842c33.234 29.673 64.58 61.406 93.844 94.999 109.801 126.282 167.999 259.401 167.999 385.001 0 93.356-37.086 182.889-103.1 248.901s-155.546 103.099-248.9 103.099c-93.356 0-182.889-37.086-248.901-103.099s-103.099-155.545-103.099-248.901c0-125.6 58.040-258.719 168-385.001 29.265-33.593 60.606-65.326 93.84-94.999h-197.84c-8.487 0-16.626-3.374-22.628-9.375-6.001-5.996-9.372-14.137-9.372-22.625s3.371-16.629 9.372-22.625c6.001-6.002 14.141-9.375 22.628-9.375h576c8.488 0 16.629 3.374 22.625 9.375 6.002 5.996 9.375 14.137 9.375 22.625s-3.374 16.629-9.375 22.625c-5.996 6.002-14.137 9.375-22.625 9.375zM224 544c0 76.382 30.343 149.637 84.353 203.647s127.264 84.353 203.647 84.353c76.385 0 149.635-30.343 203.645-84.353s84.355-127.264 84.355-203.647c0-228.921-221.878-419.999-288-472.001-66.12 52.002-288 243.081-288 472.001zM672 544c0 31.645-9.387 62.579-26.965 88.891s-42.57 46.82-71.805 58.929c-29.236 12.11-61.407 15.279-92.444 9.105s-59.546-21.412-81.923-43.789c-22.376-22.377-37.615-50.886-43.789-81.923s-3.005-63.208 9.105-92.444c12.11-29.236 32.618-54.225 58.929-71.806s57.246-26.965 88.891-26.965c42.435 0 83.132 16.857 113.135 46.863 30.009 30.006 46.865 70.703 46.865 113.137zM416 544c0 18.987 5.63 37.548 16.179 53.334s25.541 28.092 43.083 35.358c17.542 7.266 36.844 9.167 55.467 5.463s35.727-12.848 49.151-26.274c13.426-13.426 22.574-30.531 26.277-49.153s1.803-37.925-5.467-55.467c-7.265-17.542-19.57-32.535-35.355-43.083-15.787-10.549-34.347-16.179-53.334-16.179-25.461 0-49.879 10.114-67.882 28.118s-28.118 42.421-28.118 67.882z" />
<glyph unicode="&#xe911;" glyph-name="compare" d="M854.641 233.359l-128-128c-6.006-6.006-14.147-9.38-22.641-9.38-8.489 0-16.635 3.374-22.641 9.38s-9.375 14.147-9.375 22.641c0 8.489 3.369 16.635 9.375 22.641l73.4 73.359h-562.76c-8.487 0-16.626 3.369-22.627 9.37-6.001 6.006-9.373 14.141-9.373 22.63 0 8.484 3.372 16.625 9.373 22.625s14.14 9.375 22.627 9.375h562.76l-73.4 73.359c-6.006 6.006-9.375 14.147-9.375 22.641 0 8.489 3.369 16.635 9.375 22.641s14.152 9.375 22.641 9.375c8.494 0 16.635-3.369 22.641-9.375l128-128c2.975-2.975 5.335-6.502 6.948-10.388 1.608-3.881 2.437-8.049 2.437-12.252s-0.829-8.371-2.437-12.252c-1.613-3.886-3.973-7.419-6.948-10.388zM297.36 489.359c6.004-6.004 14.148-9.378 22.64-9.378s16.636 3.374 22.64 9.378c6.005 6.005 9.378 14.149 9.378 22.64s-3.373 16.635-9.378 22.64l-73.4 73.36h562.76c8.489 0 16.625 3.372 22.625 9.373 6.006 6.001 9.375 14.14 9.375 22.627s-3.369 16.626-9.375 22.627c-6.001 6.001-14.136 9.373-22.625 9.373h-562.76l73.4 73.36c6.005 6.005 9.378 14.149 9.378 22.64s-3.373 16.635-9.378 22.64c-6.004 6.004-14.148 9.378-22.64 9.378s-16.635-3.374-22.64-9.378l-128-128c-2.975-2.972-5.336-6.501-6.946-10.386s-2.439-8.049-2.439-12.254c0-4.206 0.829-8.37 2.439-12.254s3.971-7.414 6.946-10.386l128-128z" />
<glyph unicode="&#xe912;" glyph-name="location-2" d="M181.817 202.793c-4.502 2.307-9.735 2.734-14.552 1.188-4.816-1.544-8.824-4.938-11.142-9.434-1.724-3.354-2.414-7.148-1.983-10.895s1.964-7.283 4.404-10.161c2.44-2.877 5.679-4.966 9.306-6.003s7.48-0.973 11.072 0.179c3.592 1.152 6.761 3.346 9.107 6.3s3.764 6.536 4.074 10.296c0.31 3.761-0.502 7.526-2.333 10.826-1.831 3.297-4.599 5.978-7.953 7.703zM230.447 171.469c-3.593-1.155-6.762-3.348-9.109-6.303-2.346-2.957-3.764-6.541-4.073-10.301s0.503-7.529 2.334-10.829c1.831-3.3 4.6-5.98 7.955-7.708 3.356-1.725 7.148-2.417 10.897-1.989s7.287 1.958 10.167 4.396c2.88 2.44 4.972 5.678 6.012 9.306 1.040 3.625 0.982 7.48-0.168 11.075-0.765 2.388-1.993 4.603-3.614 6.515-1.621 1.915-3.603 3.489-5.833 4.636s-4.664 1.843-7.163 2.051c-2.499 0.207-5.015-0.082-7.403-0.847zM498.225 470.244c1.475-1.782 3.315-3.223 5.402-4.227 2.084-1.001 4.36-1.541 6.674-1.577 2.312-0.038 4.605 0.428 6.72 1.359 2.117 0.934 4.004 2.317 5.535 4.050 4.723 5.356 115.909 131.794 136.73 192.799 24.072 70.532 19.5 128.17-13.596 171.31-37.711 49.16-103.544 64.026-136.2 61.834-61.67-4.126-106.662-26.68-133.724-67.034-31.36-46.768-30.979-110.832-16.691-153.573 20.301-60.721 134.308-199.081 139.151-204.941zM402.342 810.936c21.251 31.69 58.020 49.5 109.284 52.928 32.842 2.2 82.819-15.678 108.672-49.384 26.173-34.118 29.1-81.724 8.701-141.497-13.814-40.471-81.334-124.631-118.060-167.67-37.614 46.81-107.86 139.174-121.518 180.017-8.812 26.356-16.005 82.47 12.918 125.606h0.003zM907.272 341.86c-316.163 140.89-258.614 114.934-316.552 141.875-1.907 0.901-3.973 1.416-6.080 1.513-2.109 0.1-4.214-0.218-6.198-0.934-1.984-0.719-3.804-1.82-5.361-3.246-1.556-1.423-2.816-3.141-3.704-5.053-0.888-1.915-1.393-3.983-1.477-6.090-0.087-2.107 0.243-4.211 0.973-6.19s1.843-3.796 3.277-5.343c1.434-1.546 3.159-2.796 5.076-3.674l12.301-5.719-77.394-39.759-80.671 41.441 12.516 5.865c1.902 0.893 3.61 2.15 5.028 3.702 1.416 1.551 2.511 3.369 3.228 5.343 0.714 1.976 1.032 4.073 0.937 6.172s-0.604 4.16-1.495 6.062c-0.893 1.902-2.15 3.612-3.702 5.028s-3.369 2.514-5.343 3.228c-3.991 1.444-8.392 1.242-12.234-0.558l-314.104-143.857c-2.783-1.285-5.143-3.336-6.8-5.916-1.658-2.578-2.544-5.576-2.556-8.64v-113.48c0-4.242 1.686-8.312 4.686-11.313s7.070-4.687 11.314-4.687c4.243 0 8.313 1.687 11.314 4.687s4.686 7.071 4.686 11.313v87.273l352.692-181.189v-77.504l-187.5 96.325c-1.871 0.978-3.917 1.577-6.021 1.761-2.102 0.184-4.221-0.051-6.234-0.689s-3.878-1.669-5.491-3.031c-1.613-1.362-2.939-3.031-3.904-4.91-0.963-1.876-1.546-3.927-1.715-6.031s0.079-4.221 0.735-6.228c0.653-2.010 1.697-3.866 3.072-5.468s3.052-2.918 4.938-3.868l210.808-108.301c2.245-1.137 4.723-1.736 7.24-1.748 2.516-0.010 5 0.566 7.252 1.684l393.436 197.629c2.652 1.331 4.879 3.372 6.438 5.898 1.556 2.524 2.381 5.432 2.381 8.397v113.48c-0.015 3.146-0.952 6.218-2.693 8.84-1.741 2.619-4.209 4.675-7.101 5.911zM507.712 147.425l-90.944 46.72 95.619 49.124 91.822-47.373-96.497-48.471zM290.122 259.208l95.885 49.26 91.441-47.176-95.693-49.16-91.633 47.076zM626.424 431.98l98.14-43.732-85.783-44.073-91.635 47.078 79.278 40.727zM512.133 373.263l91.635-47.076-91.351-46.93-91.441 47.176 91.156 46.83zM639.57 213.658l-92.214 47.575 91.425 46.968 93.435-48-92.646-46.543zM767.624 277.985l-93.829 48.202 88.269 45.345 101.637-45.289-96.077-48.259zM477.123 391.25l-91.082-46.792-87.56 45.171 96.274 43.935 82.368-42.314zM261.448 372.731l89.62-46.236-95.961-49.3-95.5 49.062 101.84 46.474zM523.63 41.943v77.668l361.436 181.555v-77.665l-361.436-181.558zM512.003 664.22c13.21 0 26.122 3.917 37.107 11.256 10.982 7.34 19.546 17.772 24.599 29.976 5.056 12.205 6.38 25.635 3.802 38.591s-8.94 24.858-18.281 34.199c-9.341 9.341-21.243 15.702-34.199 18.279s-26.386 1.254-38.589-3.802c-12.206-5.056-22.638-13.617-29.975-24.601-7.34-10.984-11.256-23.898-11.256-37.108 0.020-17.708 7.063-34.685 19.587-47.206 12.521-12.521 29.496-19.564 47.206-19.584zM512.003 765.802c6.881 0 13.606-2.040 19.328-5.863s10.181-9.257 12.815-15.614c2.632-6.357 3.32-13.353 1.979-20.102s-4.657-12.948-9.521-17.814c-4.867-4.866-11.067-8.179-17.815-9.523-6.748-1.341-13.745-0.653-20.101 1.981-6.359 2.632-11.791 7.092-15.616 12.814-3.822 5.721-5.862 12.448-5.862 19.329 0.010 9.224 3.679 18.068 10.202 24.591s15.365 10.191 24.591 10.201z" />
<glyph unicode="&#xe913;" glyph-name="sale" d="M256 448c9.687-0.018 19.366 0.525 28.992 1.626 1.702 0.151 3.359 0.643 4.869 1.444s2.847 1.897 3.924 3.223c1.080 1.326 1.884 2.854 2.363 4.495 0.481 1.641 0.625 3.361 0.43 5.061-0.197 1.697-0.732 3.341-1.574 4.828s-1.974 2.793-3.328 3.837c-1.354 1.044-2.903 1.805-4.557 2.24s-3.379 0.535-5.071 0.292c-8.648-0.98-17.344-1.464-26.048-1.446-62.502 0-102.4 22.746-102.4 38.4v37.581c31.14-17.684 66.62-26.271 102.4-24.781 35.779-1.495 71.26 7.086 102.4 24.768v-37.568c0-3.395 1.349-6.651 3.748-9.052 2.401-2.399 5.658-3.748 9.052-3.748s6.651 1.349 9.052 3.748c2.399 2.401 3.748 5.658 3.748 9.052v76.8c0 36.48-55.027 64-128 64s-128-27.52-128-64v-460.8c0-36.48 55.027-64 128-64 9.062 0.015 18.12 0.486 27.136 1.408 1.672 0.169 3.295 0.668 4.774 1.464 1.482 0.796 2.79 1.876 3.853 3.18s1.859 2.803 2.342 4.413c0.481 1.61 0.643 3.3 0.474 4.972s-0.668 3.295-1.464 4.774c-0.796 1.482-1.876 2.79-3.18 3.853s-2.803 1.859-4.413 2.342c-1.61 0.481-3.3 0.643-4.972 0.474-8.156-0.842-16.351-1.27-24.55-1.28-62.502 0-102.4 22.746-102.4 38.4v37.568c31.141-17.682 66.621-26.263 102.4-24.768 4.608 0 9.088 0.128 13.568 0.41 3.343 0.264 6.451 1.83 8.65 4.362 2.202 2.532 3.32 5.824 3.118 9.172s-1.713 6.482-4.204 8.73c-2.488 2.248-5.763 3.425-9.114 3.284-3.968-0.243-7.936-0.358-12.032-0.358-62.502 0-102.4 22.746-102.4 38.4v37.568c31.145-17.684 66.629-26.266 102.413-24.768 4.608 0 9.088 0.128 13.568 0.41 3.343 0.264 6.451 1.83 8.65 4.362 2.202 2.532 3.32 5.824 3.118 9.172s-1.713 6.482-4.204 8.73c-2.488 2.248-5.763 3.425-9.114 3.284-3.968-0.243-7.936-0.358-12.032-0.358-62.502 0-102.4 22.746-102.4 38.4v37.568c31.145-17.684 66.629-26.266 102.413-24.768 4.608 0 9.088 0.128 13.568 0.41 3.343 0.264 6.451 1.83 8.65 4.362 2.202 2.532 3.32 5.824 3.118 9.172s-1.713 6.482-4.204 8.73c-2.488 2.248-5.763 3.425-9.114 3.284-3.968-0.243-7.936-0.358-12.032-0.358-62.502 0-102.4 22.746-102.4 38.4v37.568c31.145-17.684 66.629-26.266 102.413-24.768 4.608 0 9.088 0.128 13.568 0.41 3.343 0.264 6.451 1.83 8.65 4.362 2.202 2.532 3.32 5.824 3.118 9.172s-1.713 6.482-4.204 8.73c-2.488 2.248-5.763 3.425-9.114 3.284-3.968-0.243-7.936-0.358-12.032-0.358-62.502 0-102.4 22.746-102.4 38.4v37.581c31.143-17.687 66.628-26.273 102.413-24.781zM256 627.2c62.502 0 102.4-22.746 102.4-38.4s-39.898-38.4-102.4-38.4c-62.502 0-102.4 22.746-102.4 38.4s39.898 38.4 102.4 38.4zM832 473.6h-460.8c-16.968-0.020-33.234-6.769-45.233-18.767s-18.747-28.265-18.767-45.233v-281.6c0.020-16.968 6.769-33.234 18.767-45.233s28.265-18.747 45.233-18.767h460.8c16.968 0.020 33.234 6.769 45.233 18.767s18.747 28.265 18.767 45.233v281.6c-0.020 16.968-6.769 33.234-18.767 45.233s-28.265 18.747-45.233 18.767zM704 396.8h65.28c2.532-12.288 8.609-23.567 17.482-32.438 8.87-8.873 20.15-14.95 32.438-17.482v-104.96c-12.288-2.532-23.567-8.609-32.438-17.482-8.873-8.87-14.95-20.15-17.482-32.438h-65.28v204.8zM499.2 89.6h-128c-10.181 0.010-19.942 4.060-27.141 11.259s-11.249 16.96-11.259 27.141v0.333c11.013-8.468 24.507-13.084 38.4-13.133h128v-25.6zM499.2 192h-65.28c-2.532 12.288-8.609 23.567-17.482 32.438-8.87 8.873-20.15 14.95-32.438 17.482v104.96c12.288 2.532 23.567 8.609 32.438 17.482 8.873 8.87 14.95 20.15 17.482 32.438h65.28v-204.8zM499.2 422.4h-76.8c-3.395 0-6.651-1.349-9.052-3.748-2.399-2.401-3.748-5.658-3.748-9.052-0.010-10.181-4.060-19.942-11.259-27.141s-16.96-11.249-27.141-11.259c-3.395 0-6.651-1.349-9.052-3.748-2.399-2.401-3.748-5.658-3.748-9.052v-128c0-3.395 1.349-6.651 3.748-9.052 2.401-2.399 5.658-3.748 9.052-3.748 10.181-0.010 19.942-4.060 27.141-11.259s11.249-16.96 11.259-27.141c0-3.395 1.349-6.651 3.748-9.052 2.401-2.399 5.658-3.748 9.052-3.748h76.8v-25.6h-128c-10.181 0.010-19.942 4.060-27.141 11.259s-11.249 16.96-11.259 27.141v230.4c0.010 10.181 4.060 19.942 11.259 27.141s16.96 11.249 27.141 11.259h128v-25.6zM678.4 89.6h-153.6v358.4h153.6v-358.4zM870.4 128c-0.010-10.181-4.060-19.942-11.259-27.141s-16.96-11.249-27.141-11.259h-128v25.6h128c13.893 0.049 27.387 4.664 38.4 13.133v-0.333zM870.4 179.2c-0.010-10.181-4.060-19.942-11.259-27.141s-16.96-11.249-27.141-11.259h-128v25.6h76.8c3.395 0 6.651 1.349 9.052 3.748 2.399 2.401 3.748 5.658 3.748 9.052 0.010 10.181 4.060 19.942 11.259 27.141s16.96 11.249 27.141 11.259c3.395 0 6.651 1.349 9.052 3.748 2.399 2.401 3.748 5.658 3.748 9.052v128c0 3.395-1.349 6.651-3.748 9.052-2.401 2.399-5.658 3.748-9.052 3.748-10.181 0.010-19.942 4.060-27.141 11.259s-11.249 16.96-11.259 27.141c0 3.395-1.349 6.651-3.748 9.052-2.401 2.399-5.658 3.748-9.052 3.748h-76.8v25.6h128c10.181-0.010 19.942-4.060 27.141-11.259s11.249-16.96 11.259-27.141v-230.4zM627.2 236.8c-0.008 5.089-2.033 9.969-5.632 13.568s-8.479 5.624-13.568 5.632h-12.8c-11.331-0.046-22.254 4.214-30.566 11.917-8.31 7.7-13.384 18.271-14.195 29.573-0.814 11.302 2.696 22.49 9.818 31.301 7.122 8.814 17.324 14.592 28.544 16.169v13.44c0 3.395 1.349 6.651 3.748 9.052 2.401 2.399 5.658 3.748 9.052 3.748s6.651-1.349 9.052-3.748c2.399-2.401 3.748-5.658 3.748-9.052v-12.8h25.6c3.395 0 6.651-1.349 9.052-3.748 2.399-2.401 3.748-5.658 3.748-9.052s-1.349-6.651-3.748-9.052c-2.401-2.399-5.658-3.748-9.052-3.748h-44.8c-5.092 0-9.976-2.022-13.576-5.624-3.602-3.599-5.624-8.484-5.624-13.576s2.022-9.976 5.624-13.576c3.599-3.602 8.484-5.624 13.576-5.624h12.8c11.331 0.046 22.254-4.214 30.566-11.917 8.31-7.7 13.384-18.271 14.195-29.573 0.814-11.302-2.696-22.49-9.818-31.301-7.122-8.814-17.324-14.592-28.544-16.169v-13.44c0-3.395-1.349-6.651-3.748-9.052-2.401-2.399-5.658-3.748-9.052-3.748s-6.651 1.349-9.052 3.748c-2.399 2.401-3.748 5.658-3.748 9.052v12.8h-25.6c-3.395 0-6.651 1.349-9.052 3.748-2.399 2.401-3.748 5.658-3.748 9.052s1.349 6.651 3.748 9.052c2.401 2.399 5.658 3.748 9.052 3.748h44.8c5.089 0.008 9.969 2.033 13.568 5.632s5.624 8.479 5.632 13.568zM691.2 588.8c0 12.659-3.753 25.032-10.785 35.556s-17.029 18.729-28.723 23.572c-11.694 4.844-24.563 6.111-36.977 3.643-12.416-2.47-23.818-8.566-32.771-17.516-8.95-8.952-15.045-20.355-17.516-32.771-2.468-12.413-1.201-25.283 3.643-36.977s13.048-21.691 23.572-28.723c10.524-7.032 22.897-10.785 35.556-10.785 16.968 0.020 33.234 6.769 45.233 18.767s18.747 28.265 18.767 45.233zM588.8 588.8c0 7.596 2.253 15.020 6.472 21.335 4.219 6.313 10.217 11.236 17.234 14.141 7.017 2.908 14.738 3.668 22.185 2.186 7.45-1.482 14.292-5.14 19.663-10.509 5.368-5.371 9.027-12.214 10.509-19.663 1.482-7.447 0.719-15.168-2.186-22.185s-7.828-13.015-14.141-17.234c-6.316-4.219-13.74-6.472-21.335-6.472-10.181 0.010-19.942 4.060-27.141 11.259s-11.249 16.96-11.259 27.141zM896 627.2v-76.8c0-2.378-0.663-4.708-1.912-6.73s-3.036-3.656-5.164-4.718c-2.125-1.062-4.506-1.513-6.874-1.3-2.368 0.215-4.628 1.083-6.531 2.509l-30.72 23.040v-51.2c0-3.395-1.349-6.651-3.748-9.052-2.401-2.399-5.658-3.748-9.052-3.748s-6.651 1.349-9.052 3.748c-2.399 2.401-3.748 5.658-3.748 9.052v70.4l-192 144-192-144v-70.4c0-3.395-1.349-6.651-3.748-9.052-2.401-2.399-5.658-3.748-9.052-3.748s-6.651 1.349-9.052 3.748c-2.399 2.401-3.748 5.658-3.748 9.052v76.8c-0.003 1.987 0.461 3.948 1.349 5.727 0.888 1.777 2.179 3.323 3.771 4.513l204.8 153.6c2.214 1.662 4.91 2.56 7.68 2.56s5.466-0.898 7.68-2.56l235.52-176.64v44.8l-243.2 182.4-222.72-167.040c-2.716-2.038-6.129-2.911-9.49-2.432-3.361 0.481-6.392 2.276-8.43 4.992s-2.911 6.129-2.432 9.49c0.481 3.361 2.276 6.392 4.992 8.43l230.4 172.8c2.214 1.662 4.91 2.56 7.68 2.56s5.466-0.898 7.68-2.56l256-192c1.592-1.19 2.883-2.737 3.771-4.513 0.888-1.779 1.352-3.74 1.349-5.727z" />
<glyph unicode="&#xe914;" glyph-name="save" d="M736 832h-448c-16.974 0-33.252-6.743-45.255-18.745s-18.745-28.281-18.745-45.255v-704c0.003-5.709 1.534-11.315 4.434-16.236s7.065-8.975 12.060-11.74c4.996-2.77 10.64-4.147 16.349-3.999 5.709 0.154 11.273 1.828 16.116 4.854l239.040 149.402 239.078-149.402c4.844-3.016 10.404-4.685 16.108-4.828s11.341 1.239 16.328 4.004c4.992 2.765 9.149 6.815 12.047 11.73 2.898 4.91 4.434 10.511 4.439 16.215v704c0 16.974-6.743 33.252-18.744 45.255s-28.283 18.745-45.256 18.745zM736 121.718l-207.078 129.403c-5.089 3.18-10.962 4.864-16.962 4.864-5.998 0-11.874-1.684-16.96-4.864l-207-129.403v646.282h448v-646.282z" />
<glyph unicode="&#xe915;" glyph-name="location-3" d="M319.995 403.197v-350.72l-199.892-42.88c-9.349-2.002-19.026-1.892-28.327 0.323s-17.99 6.477-25.433 12.477c-7.397 6.003-13.362 13.578-17.458 22.177s-6.222 18.004-6.222 27.53v489.6c0 30.508 20.694 56.32 50.56 62.72l141.654 30.292c1.493-94.080 37.546-182.185 85.119-251.52zM661.33 351.572v-351.575c-7.468 0-15.148 0.855-22.4 2.348l-262.828 56.32c-4.48 1.068-8.96 1.492-13.44 1.492v289.068c52.268-57.812 109.652-93.228 149.332-93.228 38.828 0 96.64 36.48 149.335 95.575zM981.33 607.572v-489.6c0-30.508-20.695-56.108-50.56-62.72l-226.775-48.428v399.148c45.868 66.985 81.068 151.040 84.908 239.36l114.988 24.745c18.985 4.055 38.612-0.425 53.76-12.8 7.396-6.001 13.361-13.576 17.457-22.175 4.099-8.599 6.223-18.004 6.223-27.53zM511.992 896c-129.388 0-234.668-105.28-234.668-234.668 0-197.929 170.368-362.665 234.668-362.665 57.492 0 234.665 163.177 234.665 362.665 0 129.388-105.28 234.668-234.665 234.668zM511.992 576c-22.633 0-44.337 8.991-60.339 24.993-16.005 16.003-24.996 37.709-24.996 60.339 0 22.633 8.991 44.337 24.996 60.341 16.003 16.003 37.706 24.994 60.339 24.994 22.63 0 44.337-8.99 60.339-24.994s24.993-37.708 24.993-60.341c0-22.63-8.991-44.337-24.993-60.339s-37.709-24.993-60.339-24.993z" />
<glyph unicode="&#xe916;" glyph-name="sale-2" d="M928 160h-64v96c0 16.973-6.743 33.252-18.744 45.256-12.004 12.001-28.283 18.744-45.256 18.744h-64c-16.973 0-33.252-6.743-45.256-18.744-12.001-12.004-18.744-28.283-18.744-45.256v-96h-64v160c0 16.973-6.743 33.252-18.744 45.256-12.004 12.001-28.283 18.744-45.256 18.744h-64c-16.973 0-33.252-6.743-45.256-18.744-12.001-12.004-18.744-28.283-18.744-45.256v-160h-64v544c0 16.974-6.743 33.253-18.744 45.255-12.004 12.002-28.283 18.745-45.256 18.745h-64c-16.974 0-33.253-6.743-45.255-18.745s-18.745-28.281-18.745-45.255v-544h-64c-8.487 0-16.626-3.372-22.627-9.372s-9.373-14.141-9.373-22.628c0-8.486 3.372-16.627 9.373-22.628s14.14-9.372 22.627-9.372h832c8.486 0 16.627 3.372 22.628 9.372s9.372 14.141 9.372 22.628c0 8.486-3.372 16.627-9.372 22.628s-14.141 9.372-22.628 9.372zM950.628 374.623l-122.24 122.24c27.965 39.314 40.138 87.698 34.109 135.565-6.031 47.864-29.824 91.719-66.665 122.867-36.844 31.148-84.042 47.318-132.244 45.303s-93.888-22.066-128.003-56.18c-34.115-34.114-54.164-79.801-56.179-128.003s14.154-95.401 45.302-132.244c31.15-36.841 75.003-60.634 122.867-66.665 47.867-6.029 96.251 6.144 135.565 34.109l122.24-122.24c6.034-5.829 14.118-9.052 22.508-8.98 8.392 0.074 16.417 3.438 22.349 9.372 5.934 5.932 9.3 13.96 9.372 22.349 0.074 8.389-3.151 16.474-8.98 22.508zM672.003 480c-25.316 0-50.063 7.506-71.112 21.571-21.051 14.067-37.455 34.056-47.145 57.446-9.687 23.388-12.221 49.124-7.283 73.953 4.938 24.832 17.129 47.639 35.031 65.539 17.902 17.902 40.709 30.093 65.539 35.032s50.565 2.404 73.953-7.284c23.391-9.688 43.382-26.094 57.446-47.145 14.065-21.048 21.571-45.796 21.571-71.112 0-33.948-13.486-66.506-37.489-90.509-24.005-24.005-56.563-37.491-90.511-37.491z" />
<glyph unicode="&#xe917;" glyph-name="apartment-2" d="M874.67 418.135v-290.135c0-58.88-47.785-106.665-106.665-106.665h-128v298.665c0 23.468-19.2 42.668-42.668 42.668h-170.668c-23.465 0-42.665-19.2-42.665-42.668v-298.665h-128c-58.881 0-106.668 47.785-106.668 106.665v290.135c4.053 1.92 7.893 4.265 11.733 6.825l350.934 234.028 350.932-234.028c3.84-2.56 7.68-4.692 11.732-6.825zM320.005 812.801l-149.334-99.413v97.28c0 23.466 19.2 42.666 42.667 42.666h64c22.828 0 41.388-17.92 42.668-40.533zM927.956 447.959c-14.725 0-29.12 4.365-41.364 12.544l-374.592 249.727-374.592-249.727c-12.294-8.164-26.729-12.506-41.486-12.477-14.757 0.031-29.175 4.429-41.437 12.639-12.261 8.212-21.817 19.871-27.463 33.505s-7.127 28.636-4.259 43.11c1.901 9.626 5.691 18.778 11.151 26.929s12.481 15.14 20.657 20.559l416.022 277.313c12.257 8.199 26.673 12.575 41.418 12.575s29.161-4.377 41.418-12.575l416-277.333c16.599-11.072 27.884-27.924 31.808-47.488 3.927-19.564-0.020-39.468-11.092-56.064-6.812-10.245-16.054-18.642-26.9-24.445s-22.963-8.832-35.264-8.814l-0.023 0.023z" />
<glyph unicode="&#xe918;" glyph-name="check" d="M884.237 690.751c16.247-17.068 15.582-44.075-1.485-60.322l-493.037-469.333c-8.42-8.017-19.745-12.25-31.357-11.721s-22.507 5.773-30.164 14.519l-189.63 216.614c-15.521 17.732-13.731 44.689 4 60.207 17.73 15.522 44.686 13.734 60.207-3.998l160.329-183.142 460.816 438.66c17.071 16.247 44.075 15.582 60.322-1.486z" />
<glyph unicode="&#xe919;" glyph-name="agent-2" d="M746.33 649.142h11.51c17.782 0 34.836-7.066 47.409-19.638 12.575-12.575 19.638-29.629 19.638-47.411v-44.692c0-17.784-7.063-34.836-19.638-47.411-12.572-12.575-29.627-19.638-47.409-19.638h-11.51v178.79zM270.218 649.142h-11.507c-17.783 0-34.837-7.066-47.411-19.638-12.574-12.575-19.638-29.629-19.638-47.411v-44.692c0-17.784 7.064-34.836 19.638-47.411s29.628-19.638 47.411-19.638h11.507v178.79zM735.841 691.812h22.001c5.115-0.044 10.22-0.445 15.276-1.201 8.248 50.275-3.108 101.798-31.721 143.95-35.615 52.6-91.666 82.77-153.782 82.77h-217.098c-4.751 0-9.37-1.587-13.117-4.509s-6.41-7.013-7.567-11.622c-2.619-11.153-4.554-22.456-5.801-33.844-19.164-4.31-37.179-12.685-52.826-24.558s-28.562-26.968-37.873-44.264c-17.714-32.562-21.486-70.376-11.618-108.173 5.62 0.927 11.304 1.413 16.999 1.454h29.381c12.255 20.437 29.591 37.352 50.322 49.1s44.152 17.928 67.981 17.939h211.2c23.818-0.025 47.224-6.212 67.945-17.96s38.049-28.656 50.299-49.082zM629.868 384c-3.617-7.59-9.306-14.001-16.412-18.496-7.104-4.495-15.334-6.889-23.744-6.904h-43.681c-11.855 0-23.224 4.71-31.606 13.092s-13.092 19.753-13.092 31.606c0 5.87 1.155 11.684 3.402 17.106 2.245 5.425 5.537 10.353 9.687 14.502 4.152 4.152 9.080 7.444 14.502 9.692 5.425 2.245 11.236 3.402 17.106 3.402h43.681c7.624-0.013 15.114-1.979 21.76-5.714 6.643-3.735 12.219-9.114 16.189-15.621h74.161c7.455 21.22 11.282 43.543 11.32 66.033v127.951c0.003 12.547-2.468 24.973-7.27 36.564-4.8 11.594-11.837 22.126-20.71 30.999s-19.405 15.912-30.996 20.714c-11.594 4.802-24.018 7.273-36.567 7.273h-211.2c-25.339 0-49.641-10.066-67.558-27.982-17.917-17.917-27.983-42.22-27.983-67.558v-127.951c-0.026-43.456 14.029-85.752 40.061-120.548s62.638-60.221 104.335-72.463c41.695-12.244 86.236-10.647 126.948 4.552s75.402 43.18 98.877 79.752h-51.21zM746.332 649.142h11.507c17.784 0 34.836-7.063 47.411-19.638s19.638-29.627 19.638-47.411v-44.692c0-17.782-7.063-34.836-19.638-47.411-12.575-12.572-29.627-19.638-47.411-19.638h-11.507v178.79zM270.221 649.142h-11.507c-17.783 0-34.837-7.063-47.411-19.638s-19.638-29.627-19.638-47.411v-44.692c0-17.782 7.064-34.836 19.638-47.411 12.574-12.572 29.628-19.638 47.411-19.638h11.507v178.79zM490.665 104l-79.731 80.568c-10.189 10.243-18.26 22.39-23.754 35.753-5.494 13.361-8.302 27.674-8.264 42.12v4.232h-77.916c-48.726-0.031-96.236-15.212-135.947-43.446s-69.658-68.122-85.69-114.132l-25.656-73.741c-2.237-6.431-2.903-13.302-1.942-20.042s3.521-13.151 7.465-18.701c3.945-5.548 9.16-10.074 15.21-13.194 6.050-3.123 12.76-4.751 19.568-4.751h396.656v125.335zM970.291 35.354l-25.656 73.741c-16.033 46.011-45.98 85.896-85.691 114.127-39.711 28.234-87.222 43.415-135.946 43.443h-77.916v-4.229c0.038-14.451-2.772-28.767-8.271-42.13-5.496-13.366-13.576-25.516-23.77-35.756l-79.708-80.55v-125.33h396.657c6.807 0 13.517 1.628 19.566 4.749 6.052 3.123 11.267 7.647 15.212 13.197 3.945 5.548 6.505 11.96 7.465 18.701 0.963 6.74 0.297 13.612-1.94 20.042v-0.005zM511.997 248.886c-30.976-0.013-61.668 5.914-90.414 17.457v-3.904c-0.046-17.933 7.032-35.149 19.676-47.864l70.738-71.48 70.73 71.48c6.264 6.295 11.228 13.76 14.607 21.972 3.377 8.212 5.105 17.011 5.082 25.892v3.901c-28.746-11.54-59.441-17.467-90.419-17.454z" />
<glyph unicode="&#xe91a;" glyph-name="mail" d="M896 768h-768c-8.487 0-16.627-3.372-22.627-9.373s-9.373-14.14-9.373-22.627v-544c0-16.973 6.743-33.254 18.745-45.254s28.281-18.746 45.255-18.746h704c16.973 0 33.254 6.746 45.254 18.746s18.746 28.282 18.746 45.254v544c0 8.487-3.373 16.627-9.37 22.627-6.003 6.001-14.144 9.373-22.63 9.373zM813.722 704l-301.722-276.6-301.72 276.6h603.442zM864 192h-704v471.24l330.36-302.84c5.904-5.42 13.626-8.426 21.64-8.426s15.736 3.007 21.64 8.426l330.36 302.84v-471.24z" />
<glyph unicode="&#xe91b;" glyph-name="like" horiz-adv-x="964" d="M70.275-21.823h100.392c38.752 0 70.275 31.521 70.275 70.277v461.802c0 38.751-31.523 70.275-70.275 70.275h-100.392c-38.752 0-70.275-31.524-70.275-70.275v-461.802c0-38.755 31.523-70.277 70.275-70.277zM513.245 871.669c-40.157 0-60.235-20.078-60.235-120.471 0-95.413-92.401-172.192-151.833-211.747v-497.462c64.291-29.756 192.994-73.848 392.776-73.848h64.247c78.306 0 144.968 56.218 158.22 133.319l44.978 261.020c16.866 98.384-58.633 187.934-158.22 187.934h-189.542c0 0 30.118 60.235 30.118 160.627 0 120.471-90.351 160.628-130.508 160.628z" />
<glyph unicode="&#xe91c;" glyph-name="dislike" horiz-adv-x="964" d="M893.488 861.632h-100.388c-38.755 0-70.277-31.523-70.277-70.274v-461.805c0-38.749 31.521-70.277 70.277-70.277h100.388c38.755 0 70.277 31.527 70.277 70.277v461.805c0 38.751-31.521 70.274-70.277 70.274zM205.563 871.669c-78.306 0-144.966-56.219-158.218-133.321l-44.976-261.019c-16.866-98.385 58.629-187.935 158.218-187.935h189.541c0 0-30.118-60.235-30.118-160.629 0-120.471 90.353-160.623 130.51-160.623s60.235 20.076 60.235 120.471c0 95.413 92.399 172.189 151.833 211.745v497.463c-64.292 29.756-192.994 73.848-392.775 73.848h-64.251z" />
<glyph unicode="&#xe91d;" glyph-name="phone-1" d="M889.478 326.16l-188.96 84.68c-9.779 4.184-20.454 5.863-31.046 4.886-10.598-0.978-20.781-4.582-29.631-10.486-1.043-0.689-2.044-1.436-3-2.24l-97.36-83c-61.68 29.96-125.36 93.16-155.32 154.040l83.12 98.84c0.8 1 1.56 2 2.28 3.080 5.777 8.828 9.283 18.947 10.204 29.457s-0.77 21.084-4.924 30.783v0.48l-84.68 188.76c-5.491 12.669-14.931 23.224-26.913 30.087s-25.862 9.667-39.567 7.993c-54.202-7.132-103.953-33.75-139.963-74.884s-55.816-93.967-55.717-148.636c0-317.6 258.4-576 575.999-576 54.669-0.096 107.501 19.706 148.634 55.718 41.133 36.006 67.757 85.76 74.886 139.962 1.677 13.702-1.12 27.578-7.974 39.558-6.861 11.981-17.402 21.425-30.067 26.922zM704 128c-135.745 0.147-265.888 54.138-361.875 150.125s-149.977 226.13-150.125 361.875c-0.151 39.060 13.922 76.84 39.589 106.284s61.174 48.538 99.891 53.716c-0.016-0.159-0.016-0.32 0-0.48l84-188-82.68-98.96c-0.84-0.965-1.602-1.995-2.28-3.080-6.019-9.236-9.551-19.872-10.252-30.874s1.453-22 6.252-31.926c36.24-74.12 110.92-148.242 185.84-184.44 9.999-4.755 21.059-6.835 32.102-6.035s21.688 4.454 30.899 10.598c1.027 0.691 2.015 1.434 2.96 2.24l97.238 82.957 188-84.198c0 0 0.32 0 0.442 0-5.114-38.771-24.179-74.349-53.632-100.083-29.446-25.728-67.264-39.853-106.368-39.718z" />
<glyph unicode="&#xe91e;" glyph-name="letter" d="M511.974 504.241l470.898 276.266c-13.553 20.058-31.788 36.519-53.116 47.966-21.336 11.446-45.129 17.535-69.339 17.742h-696.887c-24.332 0.010-48.298-5.925-69.814-17.29s-39.927-27.815-53.635-47.919l471.893-276.765zM561.779 418.616c-15.124-8.773-32.293-13.409-49.778-13.44-17.439-0.121-34.605 4.342-49.777 12.942l-448 262.329v-481.352c0-39.607 15.733-77.59 43.739-105.596s65.989-43.739 105.594-43.739h696.889c39.607 0 77.59 15.733 105.596 43.739s43.739 65.989 43.739 105.596v481.352l-448.002-261.831z" />
<glyph unicode="&#xe91f;" glyph-name="phone-3" d="M64 768c0 33.948 13.485 66.505 37.49 90.51s56.562 37.49 90.51 37.49h58.538c36.694 0 68.694-25.002 77.611-60.586l47.146-188.715c3.82-15.274 3.049-31.337-2.218-46.174s-14.796-27.792-27.392-37.238l-55.168-41.387c-5.76-4.309-6.998-10.624-5.376-15.018 24.080-65.487 62.105-124.958 111.443-174.296s108.809-87.363 174.296-111.444c4.394-1.616 10.666-0.38 15.018 5.376l41.387 55.169c9.446 12.596 22.4 22.125 37.238 27.392s30.9 6.039 46.174 2.218l188.717-47.146c35.584-8.918 60.584-40.918 60.584-77.65v-58.5c0-33.946-13.488-66.501-37.493-90.507s-56.561-37.493-90.507-37.493h-96c-371.114 0-672 300.886-672 672v96z" />
<glyph unicode="&#xe920;" glyph-name="user-2" horiz-adv-x="1004" d="M669.288 615.32c0 44.377-17.629 86.936-49.007 118.314s-73.937 49.007-118.314 49.007c-44.375 0-86.934-17.628-118.312-49.007s-49.007-73.937-49.007-118.314c0-44.375 17.629-86.934 49.007-118.312s73.937-49.007 118.312-49.007c44.377 0 86.936 17.629 118.314 49.007s49.007 73.937 49.007 118.312zM627.457 615.32c0-33.282-13.222-65.201-36.756-88.735s-55.453-36.756-88.735-36.756c-33.282 0-65.201 13.222-88.735 36.756s-36.756 55.453-36.756 88.735c0 33.282 13.222 65.201 36.756 88.735s55.453 36.756 88.735 36.756c33.282 0 65.201-13.222 88.735-36.756s36.756-55.453 36.756-88.735zM209.153 134.275c0 14.139 6.275 35.764 20.498 61.448 16.364 28.764 36.886 54.953 60.904 77.72 52.706 50.489 126.201 90.897 211.41 90.897 85.249 0 158.744-40.408 211.408-90.897 24.018-22.767 44.542-48.955 60.906-77.72 14.222-25.684 20.496-47.351 20.496-61.448 0-5.548 2.203-10.866 6.126-14.79 3.921-3.921 9.242-6.126 14.79-6.126 5.546 0 10.866 2.205 14.788 6.126 3.923 3.923 6.126 9.242 6.126 14.79 0 24.261-9.913 53.124-25.767 81.693-18.39 32.433-41.478 61.966-68.518 87.634-58.143 55.802-141.553 102.569-240.355 102.569-98.846 0-182.172-46.767-240.357-102.569-27.038-25.67-50.128-55.202-68.517-87.634-15.854-28.57-25.767-57.432-25.767-81.693 0-5.548 2.203-10.866 6.126-14.79 3.922-3.921 9.242-6.126 14.789-6.126s10.867 2.205 14.789 6.126c3.923 3.923 6.126 9.242 6.126 14.79z" />
<glyph unicode="&#xe921;" glyph-name="house" horiz-adv-x="1004" d="M397.386 217.935c-5.548 0-10.868-2.205-14.79-6.126-3.923-3.923-6.126-9.242-6.126-14.79s2.203-10.866 6.126-14.79c3.921-3.921 9.242-6.126 14.79-6.126h209.149c5.548 0 10.868 2.205 14.79 6.126 3.923 3.923 6.126 9.242 6.126 14.79s-2.203 10.866-6.126 14.79c-3.921 3.921-9.242 6.126-14.79 6.126h-209.149zM592.687 842.248c-25.841 20.404-57.804 31.502-90.73 31.502-32.925 0-64.887-11.098-90.728-31.502l-271.896-214.673c-17.356-13.704-31.382-31.162-41.025-51.063s-14.652-41.729-14.651-63.843v-336.565c0-38.828 15.425-76.067 42.881-103.524 27.456-27.455 64.695-42.879 103.525-42.879h543.79c38.83 0 76.067 15.424 103.524 42.879 27.455 27.457 42.882 64.697 42.882 103.524v336.565c0 22.114-5.010 43.942-14.651 63.843-9.644 19.902-23.668 37.36-41.024 51.063l-271.896 214.673zM437.164 809.412c18.454 14.569 41.281 22.492 64.793 22.492 23.514 0 46.341-7.924 64.795-22.492l271.896-214.672c12.398-9.786 22.42-22.255 29.308-36.47s10.469-29.804 10.471-45.6v-336.565c0-27.734-11.017-54.334-30.628-73.945-19.613-19.613-46.213-30.63-73.947-30.63h-543.79c-27.736 0-54.335 11.017-73.946 30.63-19.612 19.611-30.629 46.211-30.629 73.945v336.565c-0.003 15.794 3.571 31.381 10.453 45.596s16.895 26.684 29.285 36.474l271.938 214.672z" />
<glyph unicode="&#xe922;" glyph-name="trashcan" d="M672 64c17.696 0 32 14.304 32 32v448c0 17.696-14.304 32-32 32s-32-14.304-32-32v-448c0-17.696 14.304-32 32-32zM352 64c17.664 0 32 14.304 32 32v448c0 17.696-14.336 32-32 32s-32-14.304-32-32v-448c0-17.696 14.336-32 32-32zM928 768h-128v64c0 70.688-57.312 128-128 128h-320c-70.688 0-128-57.312-128-128v-64h-128l-96-96c0-17.696 14.336-32 32-32h96v-640c0-35.328 28.672-64 64-64h640c35.328 0 64 28.672 64 64v640h96c17.696 0 32 14.304 32 32l-96 96zM320 832c0 35.328 28.672 64 64 64h256c35.328 0 64-28.672 64-64v-64h-384v64zM832 32c0-17.696-14.304-32-32-32h-576c-17.664 0-32 14.304-32 32v608h640v-608zM512 64c17.696 0 32 14.304 32 32v448c0 17.696-14.304 32-32 32s-32-14.304-32-32v-448c0-17.696 14.304-32 32-32z" />
<glyph unicode="&#xe923;" glyph-name="shield" horiz-adv-x="1004" d="M705.004 537.767c3.927 3.927 6.134 9.254 6.134 14.808s-2.207 10.881-6.134 14.808c-3.927 3.927-9.254 6.134-14.808 6.134s-10.881-2.207-14.808-6.134l-200.449-200.491c-1.944-1.948-4.251-3.494-6.793-4.548-2.54-1.054-5.265-1.596-8.015-1.596s-5.475 0.542-8.017 1.596c-2.54 1.054-4.849 2.6-6.791 4.548l-116.79 116.832c-3.927 3.927-9.254 6.132-14.808 6.132s-10.881-2.205-14.808-6.132c-3.927-3.927-6.134-9.254-6.134-14.808 0-5.556 2.207-10.881 6.134-14.808l116.832-116.79c5.827-5.831 12.746-10.457 20.36-13.611 7.616-3.156 15.778-4.781 24.022-4.781 8.242 0 16.406 1.624 24.020 4.781 7.616 3.154 14.535 7.78 20.362 13.611l200.491 200.449zM546.047 874.29c-28.694 9.062-59.484 9.062-88.178 0l-271.895-85.835c-29.69-9.376-55.617-27.973-74.017-53.090-18.399-25.116-28.313-55.445-28.3-86.58v-200.784c0-56.053 20.915-159.666 83.2-249.81 63.037-91.23 168.491-168.49 335.1-168.49 166.611 0 272.063 77.26 335.101 168.49 62.327 90.144 83.201 193.757 83.201 249.81v200.826c0.004 31.128-9.913 61.446-28.313 86.556-18.398 25.107-44.321 43.698-74.005 53.072l-271.894 85.835zM470.46 834.426c20.5 6.475 42.496 6.475 62.996 0l271.896-85.878c21.199-6.696 39.711-19.972 52.852-37.904 13.141-17.934 20.225-39.587 20.223-61.817v-200.826c0-48.524-18.824-143.603-75.754-226.009-56.177-81.318-149.416-150.462-300.717-150.462-151.299 0-244.537 69.144-300.715 150.462-56.89 82.406-75.755 177.485-75.755 226.009v200.826c-0.001 22.231 7.083 43.883 20.224 61.817 13.141 17.932 31.654 31.208 52.853 37.904l271.896 85.878z" />
<glyph unicode="&#xe924;" glyph-name="Bed-2" d="M832 672h-736v96c0 8.487-3.372 16.626-9.373 22.627s-14.141 9.373-22.627 9.373c-8.487 0-16.626-3.372-22.627-9.373s-9.373-14.141-9.373-22.627v-640c0-8.486 3.371-16.627 9.373-22.626 6.001-6.003 14.141-9.374 22.627-9.374s16.626 3.371 22.627 9.374c6.001 5.999 9.373 14.14 9.373 22.626v128h832v-128c0-8.486 3.371-16.627 9.374-22.626 5.999-6.003 14.14-9.374 22.626-9.374s16.627 3.371 22.626 9.374c6.003 5.999 9.374 14.14 9.374 22.626v384c0 42.435-16.858 83.131-46.865 113.137-30.003 30.006-70.699 46.863-113.135 46.863zM96 608h288v-288h-288v288zM448 320v288h384c25.459 0 49.877-10.114 67.883-28.118 18.001-18.004 28.117-42.421 28.117-67.882v-192h-480z" />
<glyph unicode="&#xe925;" glyph-name="settings" d="M682.667 426.667c0 47.104-19.157 89.856-50.005 120.661s-73.557 50.005-120.661 50.005-89.856-19.157-120.661-50.005-50.005-73.557-50.005-120.661 19.157-89.856 50.005-120.661 73.557-50.005 120.661-50.005 89.856 19.157 120.661 50.005 50.005 73.557 50.005 120.661zM597.333 426.667c0-23.595-9.515-44.843-25.003-60.331s-36.736-25.003-60.331-25.003-44.843 9.515-60.331 25.003-25.003 36.736-25.003 60.331 9.515 44.843 25.003 60.331 36.736 25.003 60.331 25.003 44.843-9.515 60.331-25.003 25.003-36.736 25.003-60.331zM866.773 281.43c1.963 4.48 4.779 8.149 8.192 10.965 4.779 3.925 10.709 6.229 17.195 6.272h3.84c35.328 0 67.413 14.379 90.496 37.504s37.504 55.168 37.504 90.496-14.379 67.413-37.504 90.496-55.168 37.504-90.496 37.504h-6.784c-4.693 0.043-9.173 1.195-13.141 3.243-5.419 2.816-9.813 7.339-12.459 13.312-0.128 1.237-0.171 2.517-0.171 3.797-1.024 2.347-1.707 4.736-2.091 7.168 0.853 14.251 3.285 19.371 7.168 23.339l2.645 2.645c24.96 25.003 37.461 57.856 37.419 90.539s-12.544 65.536-37.589 90.539c-25.003 24.96-57.856 37.461-90.539 37.419s-65.536-12.544-90.453-37.504l-1.963-1.963c-3.541-3.413-7.808-5.803-12.288-7.083-5.973-1.664-12.416-1.365-18.688 1.408-4.309 1.877-7.979 4.693-10.795 8.107-3.925 4.779-6.229 10.709-6.272 17.195v3.84c0 35.328-14.379 67.413-37.504 90.496s-55.168 37.504-90.496 37.504-67.413-14.379-90.496-37.504-37.504-55.168-37.504-90.496v-6.784c-0.043-4.693-1.195-9.173-3.243-13.141-2.816-5.419-7.339-9.813-13.312-12.459-1.237-0.128-2.517-0.171-3.797-0.171-2.347-1.024-4.736-1.707-7.168-2.091-14.293 0.896-19.413 3.328-23.381 7.211l-2.645 2.645c-25.003 24.96-57.813 37.461-90.539 37.461s-65.493-12.544-90.539-37.632c-24.96-25.003-37.461-57.813-37.461-90.539s12.544-65.536 37.504-90.453l2.048-2.005c3.413-3.541 5.803-7.808 7.083-12.288 1.664-5.973 1.365-12.416-1.323-18.517-0.256-0.683-0.555-1.451-0.896-2.219-1.749-4.651-4.608-8.661-8.149-11.733-4.693-4.053-10.667-6.528-16.341-6.656h-3.84c-35.328 0-67.413-14.379-90.496-37.504s-37.504-55.211-37.504-90.539 14.379-67.413 37.504-90.496 55.168-37.504 90.496-37.504h6.784c4.693-0.043 9.173-1.195 13.141-3.243 5.461-2.859 9.941-7.424 12.629-13.696 1.024-2.347 1.707-4.736 2.091-7.168-0.853-14.251-3.285-19.371-7.168-23.339l-2.645-2.645c-24.96-25.003-37.461-57.856-37.419-90.539s12.544-65.536 37.589-90.539c25.003-24.96 57.856-37.461 90.539-37.419s65.536 12.544 90.453 37.504l2.005 2.048c3.541 3.413 7.808 5.803 12.288 7.083 5.973 1.664 12.416 1.365 18.517-1.323 0.683-0.256 1.451-0.555 2.219-0.896 4.651-1.749 8.661-4.608 11.733-8.149 4.053-4.693 6.528-10.667 6.656-16.341v-3.925c0-35.328 14.379-67.413 37.504-90.496s55.168-37.504 90.496-37.504 67.413 14.379 90.496 37.504 37.504 55.168 37.504 90.496v6.784c0.043 4.693 1.195 9.173 3.243 13.141 2.859 5.461 7.424 9.941 13.696 12.629 2.347 1.024 4.736 1.707 7.168 2.091 14.251-0.853 19.371-3.285 23.339-7.168l2.645-2.645c25.003-24.96 57.856-37.461 90.539-37.419s65.536 12.544 90.539 37.589c24.96 25.003 37.461 57.856 37.419 90.539s-12.544 65.536-37.504 90.453l-2.048 2.005c-3.413 3.541-5.803 7.808-7.083 12.288-1.664 5.973-1.365 12.416 1.323 18.517zM784.896 541.782c-0.512 8.576-1.621 12.672-3.243 16.299v-3.413c0-1.835 0.128-3.584 0.341-5.333 0.896-2.56 1.835-5.077 2.901-7.552 0.171-3.84 0.213-3.883 0.213-3.925 10.624-24.789 29.184-43.947 51.541-55.595 15.829-8.235 33.493-12.715 51.669-12.928h7.68c11.776 0 22.4-4.736 30.165-12.501s12.501-18.389 12.501-30.165-4.736-22.4-12.501-30.165-18.389-12.501-30.165-12.501h-3.84c-27.179-0.128-52.053-9.728-71.467-25.728-13.781-11.349-24.789-25.899-32-42.368-10.965-24.832-12.288-51.627-5.419-76.032 5.077-18.048 14.549-34.731 27.819-48.469l3.072-3.115c8.363-8.363 12.544-19.2 12.544-30.165s-4.139-21.845-12.459-30.165c-8.405-8.405-19.243-12.587-30.251-12.587s-21.845 4.139-30.165 12.459l-2.603 2.603c-19.755 19.328-44.373 29.952-69.632 32.085-18.645 1.579-37.632-1.451-55.168-9.045-24.661-10.581-43.819-29.141-55.467-51.456-8.235-15.829-12.715-33.493-12.928-51.669v-7.723c0-11.776-4.736-22.4-12.501-30.165s-18.347-12.459-30.123-12.459-22.4 4.736-30.165 12.501-12.501 18.389-12.501 30.165v3.84c-0.64 28.16-10.88 52.992-27.477 72.192-12.117 13.995-27.563 24.96-45.141 31.744-24.533 10.539-50.901 11.691-74.923 4.949-18.048-5.077-34.731-14.549-48.469-27.819l-3.115-3.072c-8.363-8.363-19.2-12.544-30.165-12.544s-21.845 4.139-30.165 12.459c-8.405 8.405-12.587 19.243-12.587 30.251s4.139 21.845 12.459 30.165l2.603 2.603c19.328 19.755 29.952 44.373 32.085 69.632 1.579 18.645-1.451 37.632-9.045 55.168-10.581 24.661-29.141 43.819-51.456 55.467-15.829 8.235-33.493 12.715-51.669 12.928l-7.68-0.043c-11.776 0-22.4 4.736-30.165 12.501s-12.501 18.389-12.501 30.165 4.736 22.4 12.501 30.165 18.389 12.501 30.165 12.501h3.84c28.16 0.64 52.992 10.88 72.192 27.477 13.995 12.117 24.96 27.563 31.744 45.141 10.539 24.533 11.691 50.901 4.949 74.923-5.077 18.048-14.549 34.731-27.819 48.469l-3.115 3.115c-8.363 8.363-12.544 19.2-12.544 30.165s4.139 21.845 12.459 30.165c8.405 8.405 19.243 12.587 30.251 12.587s21.845-4.139 30.165-12.459l2.603-2.603c19.755-19.328 44.373-29.952 69.632-32.085 15.787-1.365 31.787 0.597 46.976 5.845 4.096 0.512 7.936 1.536 11.349 3.072-1.323-0.043-2.603-0.128-3.797-0.171-8.576-0.512-12.672-1.621-16.299-3.243h3.413c1.835 0 3.584 0.128 5.333 0.341 2.56 0.896 5.077 1.835 7.552 2.901 3.84 0.171 3.883 0.213 3.925 0.213 24.789 10.624 43.947 29.184 55.595 51.541 8.235 15.787 12.715 33.493 12.928 51.627v7.723c0 11.776 4.736 22.4 12.501 30.165s18.389 12.501 30.165 12.501 22.4-4.736 30.165-12.501 12.501-18.389 12.501-30.165v-3.84c0.128-27.179 9.728-52.053 25.728-71.467 11.349-13.781 25.899-24.789 42.496-32.043 24.661-10.88 51.456-12.203 75.861-5.333 18.048 5.077 34.731 14.549 48.469 27.819l3.115 3.072c8.363 8.363 19.2 12.544 30.165 12.544s21.845-4.139 30.165-12.459c8.405-8.405 12.587-19.243 12.587-30.251s-4.139-21.845-12.459-30.165l-2.603-2.603c-19.328-19.755-29.952-44.373-32.085-69.632-1.365-15.787 0.597-31.787 5.845-46.976 0.512-4.053 1.579-7.893 3.072-11.349-0.043 1.365-0.085 2.645-0.171 3.797z" />
<glyph unicode="&#xe926;" glyph-name="arrow-down" horiz-adv-x="1536" d="M37.49 858.51c49.987 49.987 131.032 49.987 181.020 0l549.49-549.491 549.491 549.491c49.984 49.987 131.034 49.987 181.018 0s49.984-131.032 0-181.020l-639.999-640c-49.988-49.987-131.032-49.987-181.020 0l-640 640c-49.987 49.988-49.987 131.032 0 181.020z" />
<glyph unicode="&#xe927;" glyph-name="Bathtub" d="M928 576.001h-96c0 8.487-3.371 16.626-9.374 22.627-5.999 6.001-14.14 9.373-22.626 9.373h-256c-8.486 0-16.627-3.372-22.626-9.373-6.003-6.001-9.374-14.141-9.374-22.627h-256v176c0 12.73 5.057 24.939 14.059 33.941s21.211 14.059 33.941 14.059c11.25 0.046 22.184-3.722 31.017-10.688s15.046-16.721 17.623-27.671c1.758-8.247 6.7-15.467 13.751-20.090s15.642-6.277 23.906-4.601c8.264 1.676 15.532 6.546 20.225 13.551s6.432 15.58 4.838 23.86c-5.433 25.463-19.472 48.278-39.754 64.605s-45.569 25.167-71.606 25.036c-29.704 0-58.192-11.8-79.196-32.804s-32.804-49.492-32.804-79.196v-176h-96c-16.974 0-33.253-6.743-45.255-18.745s-18.745-28.279-18.745-45.256v-128c0.064-59.388 23.684-116.326 65.678-158.319 41.995-41.997 98.933-65.617 158.322-65.681v-64c0-8.486 3.372-16.623 9.373-22.626s14.141-9.374 22.627-9.374c8.487 0 16.626 3.371 22.627 9.374s9.373 14.14 9.373 22.626v64h384v-64c0-8.486 3.371-16.623 9.374-22.626 5.999-6.003 14.14-9.374 22.626-9.374s16.627 3.371 22.626 9.374c6.003 6.003 9.374 14.14 9.374 22.626v64c59.388 0.064 116.326 23.684 158.323 65.681 41.993 41.993 65.613 98.931 65.677 158.319v128c0 16.977-6.741 33.254-18.743 45.256s-28.284 18.745-45.257 18.745zM768 544.001v-128.001h-192v128.001h192zM928 384c0-21.009-4.139-41.818-12.181-61.227-8.038-19.413-19.823-37.052-34.684-51.908-14.857-14.857-32.495-26.645-51.904-34.684-19.413-8.043-40.218-12.181-61.231-12.181h-512c-42.435 0-83.131 16.858-113.137 46.865-30.006 30.003-46.863 70.703-46.863 113.135v128h416v-128c0-8.486 3.371-16.623 9.374-22.626 5.999-6.003 14.14-9.374 22.626-9.374h256c8.486 0 16.627 3.371 22.626 9.374 6.003 6.003 9.374 14.14 9.374 22.626v128h96v-128z" />
<glyph unicode="&#xe928;" glyph-name="Crop" horiz-adv-x="1067" d="M974.251 192c0-8.486-3.371-16.627-9.374-22.626-5.999-6.003-14.14-9.374-22.626-9.374h-128v-128c0-8.486-3.371-16.627-9.374-22.626-5.999-6.003-14.14-9.374-22.626-9.374s-16.627 3.371-22.626 9.374c-6.003 5.999-9.374 14.14-9.374 22.626v128h-480.001c-8.487 0-16.626 3.371-22.627 9.374-6.001 5.999-9.373 14.14-9.373 22.626v480h-128c-8.487 0-16.626 3.372-22.627 9.373s-9.373 14.141-9.373 22.627c0 8.487 3.372 16.626 9.373 22.627s14.141 9.373 22.627 9.373h128v128c0 8.487 3.372 16.626 9.373 22.627s14.141 9.373 22.627 9.373c8.487 0 16.626-3.372 22.627-9.373s9.373-14.141 9.373-22.627v-640h640.001c8.486 0 16.627-3.371 22.626-9.374 6.003-5.999 9.374-14.14 9.374-22.626zM398.25 672h352.001v-352c0-8.486 3.371-16.627 9.374-22.626 5.999-6.003 14.14-9.374 22.626-9.374s16.627 3.371 22.626 9.374c6.003 5.999 9.374 14.14 9.374 22.626v384c0 8.487-3.371 16.626-9.374 22.627-5.999 6.001-14.14 9.373-22.626 9.373h-384.001c-8.487 0-16.626-3.372-22.627-9.373s-9.373-14.141-9.373-22.627c0-8.487 3.372-16.626 9.373-22.627s14.141-9.373 22.627-9.373z" />
<glyph unicode="&#xe929;" glyph-name="Garage-1" horiz-adv-x="1067" d="M988.416 192h-32v373.319c0 10.532-2.598 20.902-7.565 30.19-4.971 9.287-12.151 17.204-20.915 23.050l-352 234.68c-10.513 7.008-22.865 10.748-35.499 10.748s-24.986-3.74-35.499-10.748l-352.002-234.68c-8.769-5.841-15.96-13.757-20.935-23.044s-7.581-19.66-7.584-30.196v-373.319h-32c-8.487 0-16.626-3.371-22.627-9.374s-9.373-14.14-9.373-22.626c0-8.486 3.371-16.627 9.373-22.63 6.001-5.999 14.14-9.37 22.627-9.37h895.999c8.486 0 16.627 3.371 22.626 9.37 6.003 6.003 9.374 14.144 9.374 22.63s-3.371 16.623-9.374 22.626c-5.999 6.003-14.14 9.374-22.626 9.374zM188.417 565.319l351.999 234.68 352-234.64v-373.359h-96v224c0 8.486-3.371 16.623-9.374 22.626-5.999 6.003-14.14 9.374-22.626 9.374h-447.999c-8.487 0-16.626-3.371-22.627-9.374s-9.373-14.14-9.373-22.626v-224h-96v373.319zM732.416 384v-64h-160v64h160zM508.416 320h-159.999v64h159.999v-64zM348.417 256h159.999v-64h-159.999v64zM572.416 256h160v-64h-160v64z" />
<glyph unicode="&#xe92a;" glyph-name="Ruler" d="M941.312 666.519l-210.761 210.72c-5.943 5.945-13.001 10.66-20.766 13.877s-16.090 4.873-24.495 4.873c-8.405 0-16.73-1.656-24.495-4.873s-14.822-7.933-20.766-13.877l-557.28-557.239c-5.944-5.943-10.66-13.001-13.877-20.766s-4.873-16.090-4.873-24.495c0-8.405 1.656-16.73 4.873-24.495s7.933-14.822 13.877-20.766l210.76-210.718c5.943-5.948 12.999-10.662 20.765-13.879s16.089-4.873 24.495-4.873c8.406 0 16.729 1.655 24.495 4.873s14.822 7.932 20.765 13.879l557.282 557.239c5.943 5.943 10.658 12.999 13.875 20.765s4.873 16.089 4.873 24.495c0 8.406-1.655 16.73-4.873 24.495s-7.932 14.822-13.875 20.765zM338.75 64l-210.72 210.761 128 128 105.36-105.399c2.973-2.974 6.502-5.333 10.387-6.942s8.048-2.436 12.253-2.436c4.205 0 8.368 0.828 12.253 2.436s7.414 3.968 10.388 6.942c2.973 2.97 5.331 6.502 6.941 10.385 1.609 3.887 2.437 8.047 2.437 12.254 0 4.203-0.828 8.367-2.437 12.254-1.609 3.883-3.968 7.411-6.941 10.385l-105.4 105.361 82.76 82.761 105.361-105.399c6.003-6.007 14.148-9.378 22.639-9.378s16.636 3.371 22.639 9.378c6.007 6.003 9.378 14.148 9.378 22.639s-3.371 16.636-9.378 22.639l-105.399 105.36 82.761 82.76 105.361-105.4c2.974-2.973 6.502-5.332 10.385-6.941 3.887-1.609 8.051-2.437 12.254-2.437 4.207 0 8.367 0.828 12.254 2.437 3.883 1.609 7.415 3.967 10.385 6.941 2.974 2.973 5.333 6.503 6.942 10.387s2.436 8.048 2.436 12.253c0 4.205-0.828 8.368-2.436 12.253s-3.968 7.414-6.942 10.387l-105.399 105.36 128 128 210.761-210.76-557.28-557.239z" />
<glyph unicode="&#xe92b;" glyph-name="SlidersHorizontal" horiz-adv-x="1067" d="M174.25 607.999h132c7.050-27.533 23.063-51.937 45.514-69.364s50.065-26.886 78.487-26.886c28.42 0 56.034 9.459 78.485 26.886s38.464 41.831 45.513 69.364h324.002c8.486 0 16.627 3.371 22.626 9.373 6.003 6.001 9.374 14.14 9.374 22.627s-3.371 16.626-9.374 22.627c-5.999 6.001-14.14 9.373-22.626 9.373h-324.002c-7.049 27.533-23.061 51.937-45.513 69.364s-50.065 26.886-78.485 26.886c-28.422 0-56.035-9.459-78.487-26.886s-38.464-41.831-45.514-69.364h-132c-8.487 0-16.626-3.372-22.627-9.373s-9.373-14.141-9.373-22.627c0-8.487 3.372-16.626 9.373-22.627s14.141-9.373 22.627-9.373zM430.251 703.999c12.659 0 25.033-3.754 35.554-10.786 10.526-7.032 18.731-17.028 23.573-28.722s6.11-24.563 3.644-36.977c-2.47-12.415-8.567-23.818-17.519-32.769-8.947-8.951-20.352-15.046-32.768-17.516s-25.282-1.202-36.977 3.642c-11.695 4.844-21.69 13.047-28.722 23.572s-10.786 22.898-10.786 35.557c0 16.974 6.743 33.252 18.745 45.255s28.281 18.745 45.256 18.745zM878.251 288h-68.002c-7.049 27.533-23.061 51.938-45.513 69.363-22.451 17.429-50.065 26.889-78.485 26.889s-56.034-9.459-78.485-26.889c-22.451-17.425-38.464-41.83-45.517-69.363h-387.999c-8.487 0-16.626-3.371-22.627-9.374-6.001-5.999-9.373-14.14-9.373-22.626s3.372-16.627 9.373-22.63c6.001-5.999 14.141-9.37 22.627-9.37h387.999c7.053-27.533 23.066-51.938 45.517-69.367 22.451-17.425 50.065-26.884 78.485-26.884s56.034 9.459 78.485 26.884c22.451 17.429 38.464 41.835 45.513 69.367h68.002c8.486 0 16.627 3.371 22.626 9.37 6.003 6.003 9.374 14.144 9.374 22.63s-3.371 16.627-9.374 22.626c-5.999 6.003-14.14 9.374-22.626 9.374zM686.251 192c-12.659 0-25.033 3.755-35.558 10.786-10.522 7.031-18.726 17.028-23.569 28.723-4.847 11.691-6.114 24.559-3.644 36.975s8.563 23.821 17.515 32.768c8.951 8.951 20.356 15.049 32.768 17.519 12.416 2.466 25.284 1.199 36.979-3.644s21.692-13.047 28.723-23.573c7.031-10.522 10.786-22.899 10.786-35.554 0-16.973-6.746-33.254-18.748-45.257s-28.279-18.743-45.252-18.743z" />
<glyph unicode="&#xe92c;" glyph-name="HouseLine" d="M960 128h-64v369.801c0 8.858-1.835 17.617-5.397 25.728-3.558 8.111-8.764 15.396-15.283 21.392l-320 301.92c-0.158 0.137-0.303 0.283-0.439 0.44-11.78 10.715-27.136 16.652-43.059 16.652-15.927 0-31.279-5.937-43.059-16.652l-0.444-0.44-319.638-301.92c-6.52-5.996-11.725-13.281-15.284-21.392s-5.397-16.87-5.396-25.728v-369.801h-64c-8.487 0-16.626-3.371-22.627-9.374-6.001-5.999-9.373-14.14-9.373-22.626s3.371-16.627 9.373-22.626c6.001-6.003 14.141-9.374 22.627-9.374h896c8.486 0 16.627 3.371 22.626 9.374 6.003 5.999 9.374 14.14 9.374 22.626s-3.371 16.627-9.374 22.626c-5.999 6.003-14.14 9.374-22.626 9.374zM192 497.801l0.44 0.401 319.56 301.799 320.038-302.119v-369.882h-192.038v192c0 16.973-6.741 33.254-18.743 45.257s-28.284 18.743-45.257 18.743h-128c-16.973 0-33.253-6.741-45.255-18.743s-18.745-28.284-18.745-45.257v-192h-192v369.801zM576 128h-128v192h128v-192z" />
<glyph unicode="&#xe92d;" glyph-name="Hammer" horiz-adv-x="1067" d="M1033.809 512l-269.841 271.681c-72.068 71.923-169.724 112.317-271.539 112.317-101.818 0-199.475-40.394-271.542-112.317l-0.36-0.36-55.080-56.92c-5.705-6.132-8.78-14.256-8.562-22.629s3.709-16.327 9.725-22.155c6.016-5.827 14.077-9.064 22.453-9.015s16.398 3.38 22.345 9.278l54.92 56.72c22.095 22.091 47.31 40.823 74.84 55.6l186.001-186.2-384.001-384.001c-5.945-5.943-10.66-12.996-13.877-20.766-3.217-7.765-4.873-16.090-4.873-24.495s1.656-16.73 4.873-24.495c3.217-7.765 7.933-14.822 13.877-20.762l82.76-82.761c5.943-5.948 12.999-10.662 20.765-13.879s16.089-4.873 24.495-4.873c8.406 0 16.729 1.655 24.495 4.873s14.822 7.932 20.765 13.879l383.999 384 128-127.923c5.943-5.943 13.001-10.658 20.766-13.875s16.090-4.873 24.495-4.873c8.405 0 16.73 1.655 24.495 4.873s14.822 7.932 20.766 13.875l114.761 114.761c11.989 11.989 18.735 28.25 18.748 45.205 0.017 16.956-6.699 33.225-18.667 45.235zM271.167 96l-82.72 82.761 271.999 272 82.722-82.761-272.001-272zM677.807 502.72l-89.361-89.399-82.761 82.679 89.404 89.401c2.974 2.972 5.333 6.501 6.942 10.386 1.613 3.885 2.441 8.049 2.441 12.254s-0.828 8.369-2.441 12.254c-1.609 3.885-3.968 7.414-6.942 10.386l-189.362 189.32c54.71 15.408 112.536 15.967 167.534 1.618 54.993-14.349 105.178-43.087 145.387-83.258l176.879-178.040-115.081-114.962-57.357 57.361c-2.974 2.978-6.502 5.338-10.389 6.946-3.883 1.613-8.047 2.441-12.254 2.441-4.203 0-8.367-0.828-12.254-2.441-3.883-1.609-7.411-3.968-10.385-6.946zM873.809 352.081l-48 48 114.637 114.918 48-48-114.637-114.918z" />
<glyph unicode="&#xe92e;" glyph-name="beds-3" horiz-adv-x="1088" d="M899.974 503.2c-22.003 9.661-45.779 14.639-69.818 14.618h-628.362c-24.032 0.023-47.807-4.947-69.818-14.596-31.108-13.604-57.58-35.976-76.178-64.382s-28.519-61.614-28.549-95.567v-244.361c0-9.261 3.678-18.138 10.225-24.685s15.426-10.227 24.684-10.227c9.258 0 18.138 3.68 24.684 10.227s10.225 15.424 10.225 24.685v17.453c0.056 4.608 1.914 9.018 5.175 12.282 3.261 3.258 7.668 5.114 12.28 5.171h802.911c4.608-0.058 9.018-1.914 12.275-5.171 3.264-3.264 5.12-7.674 5.178-12.282v-17.453c0-9.261 3.68-18.138 10.227-24.685s15.424-10.227 24.685-10.227c9.254 0 18.138 3.68 24.678 10.227 6.547 6.547 10.227 15.424 10.227 24.685v244.361c-0.032 33.949-9.958 67.153-28.557 95.555s-45.062 50.77-76.173 64.372zM777.798 832h-523.639c-32.405 0-63.482-12.873-86.396-35.786s-35.786-53.991-35.786-86.396v-157.091c0.001-1.352 0.317-2.686 0.921-3.896s1.482-2.262 2.564-3.075c1.081-0.813 2.336-1.363 3.667-1.607s2.699-0.176 3.998 0.199c19.057 5.574 38.813 8.396 58.669 8.378h9.229c2.154-0.013 4.237 0.77 5.848 2.2s2.637 3.405 2.879 5.546c1.904 17.057 10.025 32.816 22.811 44.266s29.342 17.789 46.506 17.806h122.182c17.175-0.001 33.747-6.333 46.547-17.784s20.93-27.219 22.835-44.288c0.243-2.141 1.268-4.116 2.879-5.546s3.695-2.213 5.849-2.2h53.367c2.154-0.013 4.237 0.77 5.848 2.2s2.637 3.405 2.879 5.546c1.903 17.046 10.014 32.796 22.787 44.244s29.312 17.795 46.465 17.828h122.182c17.178-0.001 33.747-6.333 46.547-17.784s20.928-27.219 22.835-44.288c0.243-2.141 1.267-4.116 2.88-5.546 1.606-1.43 3.693-2.213 5.85-2.2h9.158c19.859 0.010 39.616-2.819 58.669-8.4 1.306-0.376 2.675-0.444 4.006-0.198s2.586 0.797 3.667 1.612c1.082 0.815 1.958 1.87 2.566 3.083 0.602 1.212 0.915 2.548 0.909 3.903v157.091c0 32.404-12.87 63.482-35.782 86.396s-53.99 35.786-86.394 35.786z" />
<glyph unicode="&#xe92f;" glyph-name="baths" d="M129.043-17.357c-9.192-13.786-5.466-32.41 8.32-41.6 4.916-3.29 10.699-5.043 16.614-5.043 9.694 0 19.208 4.691 24.988 13.363l22.864 34.298c-18.417 8.077-36.056 17.824-52.698 29.12l-20.088-30.138zM878.874 12.781c-16.64-11.296-34.278-21.043-52.698-29.12l22.867-34.298c5.779-8.672 15.29-13.363 24.986-13.363 5.722 0 11.501 1.632 16.614 5.043 13.792 9.19 17.51 27.814 8.32 41.6l-20.090 30.138zM64.004 379.716v-93.713c0-148.883 121.123-270.003 270-270.003h359.999c148.877 0 270.003 121.12 270.003 270.003v17.466h-495.718c-139.466 0-275.222 25.643-404.284 76.247zM163.993 606.422v243.578c0 27.57 22.43 50 50 50h40c27.57 0 50-22.43 50-50v-14.234c-46.376-13.362-80-56.886-80-107.436v-8.33c0-16.568 13.432-30 30-30h160c16.568 0 30 13.432 30 30v10c0 50.254-33.886 92.72-80 105.814v14.186c0 60.654-49.346 110-110 110h-40c-60.654 0-110-49.346-110-110v-219.488c4.754-1.45 9.418-3.183 13.966-5.188 15.162-6.735 30.513-13.038 46.034-18.902zM960.25 490.966h-491.961c-129.926 0-255.952 26.75-374.63 79.5-32.228 14.276-69.85-0.188-84.148-32.352-14.298-32.166 0.186-69.85 32.352-84.148 135.094-60.056 278.55-90.498 426.428-90.498h491.959c35.219 0 63.75 28.534 63.75 63.75s-28.538 63.748-63.75 63.748z" />
<glyph unicode="&#xe930;" glyph-name="DownloadSimple" d="M896 352v-224c0-16.973-6.741-33.254-18.743-45.257s-28.284-18.743-45.257-18.743h-640c-16.974 0-33.253 6.741-45.255 18.743s-18.745 28.284-18.745 45.257v224c0 8.486 3.372 16.627 9.373 22.626 6.001 6.003 14.141 9.374 22.627 9.374s16.626-3.371 22.627-9.374c6.001-5.999 9.373-14.14 9.373-22.626v-224h640v224c0 8.486 3.371 16.627 9.374 22.626 5.999 6.003 14.14 9.374 22.626 9.374s16.627-3.371 22.626-9.374c6.003-5.999 9.374-14.14 9.374-22.626zM489.361 329.361c2.97-2.978 6.498-5.338 10.385-6.946 3.883-1.613 8.047-2.441 12.254-2.441s8.371 0.828 12.254 2.441c3.887 1.609 7.415 3.968 10.385 6.946l160 160c2.974 2.974 5.333 6.502 6.942 10.385 1.609 3.887 2.436 8.051 2.436 12.254s-0.828 8.367-2.436 12.254c-1.609 3.883-3.968 7.411-6.942 10.386-2.974 2.973-6.502 5.331-10.385 6.941-3.887 1.609-8.051 2.437-12.254 2.437s-8.367-0.828-12.254-2.437c-3.883-1.609-7.411-3.968-10.385-6.941l-105.361-105.401v370.761c0 8.487-3.371 16.626-9.374 22.627-5.999 6.001-14.14 9.373-22.626 9.373s-16.627-3.372-22.626-9.373c-6.003-6.001-9.374-14.141-9.374-22.627v-370.761l-105.36 105.401c-6.005 6.004-14.149 9.378-22.64 9.378s-16.635-3.373-22.64-9.378c-6.004-6.004-9.378-14.15-9.378-22.64s3.373-16.636 9.378-22.639l160.001-160z" />
<glyph unicode="&#xe931;" glyph-name="360" horiz-adv-x="1007" d="M859.712 800.826c-95.12 95.117-221.587 147.502-356.105 147.502s-260.986-52.385-356.105-147.502c-95.119-95.117-147.502-221.586-147.502-356.105s52.385-260.986 147.502-356.105c95.118-95.118 221.587-147.501 356.105-147.501s260.986 52.385 356.105 147.501c95.118 95.116 147.501 221.587 147.501 356.105s-52.385 260.986-147.501 356.105zM838.846 779.961c54.823-54.823 94.532-120.716 117.11-192.63-24.648 32.14-57.812 61.7-98.819 87.518-25.202 15.867-52.612 29.817-81.755 41.774-0.069 0.191-0.124 0.383-0.203 0.572-32.37 78.761-77.194 140.243-129.15 179.933 71.987-22.568 137.948-62.3 192.818-117.169zM168.367 779.961c54.849 54.849 120.787 94.573 192.744 117.147-31.029-23.768-59.664-55.46-84.826-94.45-2.080-3.287-2.777-7.263-1.939-11.062 0.836-3.797 3.139-7.113 6.408-9.221 3.268-2.11 7.239-2.842 11.044-2.040s7.141 3.074 9.28 6.324c55.002 85.225 126.927 132.161 202.529 132.161 91.898 0 177.78-69.706 233.316-187.909-71.129 23.752-150.726 36.36-233.316 36.36-133.321 0-258.877-32.823-353.532-92.42-41.006-25.817-74.172-55.38-98.819-87.518 22.58 71.912 62.29 137.805 117.112 192.628zM165.797 649.881c16.326 10.28 33.652 19.709 51.817 28.278-23.943-71.687-36.557-151.617-36.557-233.437 0-82.59 12.607-162.19 36.362-233.318-118.269 55.519-187.911 141.23-187.911 233.318 0 76.963 48.401 149.823 136.289 205.159zM168.367 109.482c-54.812 54.813-94.518 120.696-117.1 192.596 39.775-51.997 101.43-96.79 180.447-129.162 11.954-29.134 25.9-56.535 41.762-81.727 25.817-41.007 55.38-74.173 87.518-98.819-71.912 22.58-137.805 62.289-192.628 117.112zM298.447 106.912c-56.673 90.006-87.883 209.975-87.883 337.809 0 88.415 15.236 174.391 44.029 249.225 74.133 28.543 159.643 43.817 249.013 43.817 127.832 0 247.801-31.21 337.809-87.883 87.888-55.336 136.289-128.196 136.289-205.159s-48.402-149.823-136.289-205.159c-16.27-10.245-33.532-19.644-51.631-28.19 23.76 71.136 36.372 150.748 36.372 233.349 0 18.467-0.643 37.089-1.915 55.345-0.311 3.874-2.137 7.468-5.083 10.005-2.944 2.535-6.772 3.806-10.648 3.535-3.878-0.27-7.49-2.058-10.057-4.977-2.565-2.918-3.876-6.732-3.648-10.611 1.227-17.739 1.843-35.514 1.843-53.297 0-89.432-15.295-174.998-43.878-249.166-74.168-28.583-159.732-43.876-249.164-43.876-57.67 0-114.030 6.372-167.511 18.937-1.887 0.445-3.843 0.512-5.755 0.2s-3.743-0.997-5.392-2.018c-1.647-1.021-3.077-2.355-4.208-3.928s-1.941-3.354-2.384-5.239c-0.896-3.811-0.242-7.819 1.82-11.145 2.060-3.327 5.357-5.699 9.167-6.594 55.696-13.087 114.324-19.721 174.263-19.721 82.602 0 162.212 12.612 233.349 36.372-8.546-18.1-17.947-35.362-28.19-51.631-55.336-87.888-128.196-136.289-205.159-136.289s-149.823 48.402-205.159 136.289zM838.846 109.482c-54.823-54.823-120.716-94.532-192.63-117.11 32.14 24.648 61.702 57.812 87.518 98.819 15.852 25.175 29.788 52.555 41.737 81.665 29.11 11.949 56.49 25.885 81.665 41.737 41.007 25.817 74.171 55.38 98.819 87.518-22.578-71.913-62.288-137.807-117.11-192.63zM648.41 550.014c-38.086 0-69.071-30.985-69.071-69.071v-72.42c0-38.086 30.985-69.071 69.071-69.071 38.084 0 69.070 30.985 69.070 69.071v72.42c0 38.086-30.985 69.071-69.070 69.071zM687.972 408.521c0-21.816-17.745-39.563-39.562-39.563s-39.563 17.747-39.563 39.563v72.42c0 21.816 17.747 39.563 39.563 39.563s39.562-17.747 39.562-39.563v-72.42zM485.458 477.59c-14.138 0.013-27.933-4.339-39.505-12.461 1.21 30.737 26.582 55.375 57.611 55.375 8.15 0 14.754 6.604 14.754 14.754s-6.604 14.754-14.754 14.754c-48.071 0-87.176-39.107-87.176-87.176v-54.316c0-38.086 30.984-69.071 69.070-69.071 38.084 0 69.070 30.985 69.070 69.071 0 38.084-30.985 69.070-69.070 69.070zM485.458 368.956c-21.815 0-39.562 17.745-39.562 39.562s17.747 39.563 39.562 39.563c21.816 0 39.562-17.745 39.562-39.563 0-21.816-17.745-39.562-39.562-39.562zM369.216 444.73c13.695 11.014 22.362 27.222 22.362 45.266 0 33.092-29.164 60.018-65.011 60.018-20.342 0-39.125-8.529-51.532-23.403-2.506-3.003-3.717-6.881-3.364-10.777 0.351-3.898 2.236-7.495 5.241-10.002 1.487-1.242 3.205-2.177 5.055-2.755s3.794-0.786 5.724-0.611c1.929 0.175 3.806 0.727 5.521 1.627 1.717 0.9 3.238 2.127 4.48 3.616 6.685 8.014 17.48 12.798 28.875 12.798 19.577 0 35.503-13.688 35.503-30.512s-15.926-30.508-35.503-30.508c-8.15 0-14.754-6.604-14.754-14.754 0-8.152 6.604-14.756 14.754-14.756 19.577 0 35.503-13.686 35.503-30.51s-15.926-30.51-35.503-30.51c-11.427 0-22.239 4.804-28.919 12.852-1.239 1.491-2.758 2.723-4.472 3.626-1.714 0.905-3.589 1.46-5.518 1.64-3.898 0.361-7.777-0.841-10.789-3.341-3.010-2.5-4.903-6.094-5.266-9.99-0.361-3.896 0.841-7.777 3.341-10.787 12.407-14.942 31.222-23.51 51.623-23.51 35.847 0 65.011 26.924 65.011 60.020 0 18.043-8.667 34.25-22.362 45.262zM757.043 640.541c-28.101 0-50.965-22.862-50.965-50.963 0-28.103 22.864-50.965 50.965-50.965s50.965 22.862 50.965 50.965c0 28.101-22.864 50.963-50.965 50.963zM757.043 568.12c-11.833 0-21.457 9.626-21.457 21.457s9.626 21.455 21.457 21.455 21.457-9.626 21.457-21.455c0-11.831-9.626-21.457-21.457-21.457z" />
<glyph unicode="&#xe932;" glyph-name="close" d="M512 533.197l-362.035 362.035-72.397-72.397 362.035-362.035-362.035-362.035 72.397-72.397 362.035 362.035 362.035-362.035 72.397 72.397-362.035 362.035 362.035 362.035-72.397 72.397-362.035-362.035z" />
<glyph unicode="&#xe933;" glyph-name="arrow-right-2" horiz-adv-x="1088" d="M758.656 425.358l-319.998-320.001c-2.973-2.97-6.503-5.331-10.387-6.938-3.885-1.613-8.048-2.438-12.253-2.438s-8.368 0.826-12.253 2.438c-3.885 1.606-7.414 3.968-10.387 6.938-2.973 2.976-5.332 6.502-6.941 10.387s-2.437 8.051-2.437 12.256c0 4.205 0.828 8.365 2.437 12.25s3.967 7.418 6.941 10.387l297.4 297.361-297.4 297.36c-6.004 6.004-9.378 14.148-9.378 22.64s3.373 16.636 9.378 22.64c6.004 6.004 14.148 9.377 22.64 9.377s16.636-3.373 22.64-9.377l319.998-320c2.976-2.972 5.338-6.501 6.95-10.386 1.606-3.885 2.438-8.049 2.438-12.254s-0.832-8.37-2.438-12.254c-1.613-3.885-3.974-7.414-6.95-10.386z" />
<glyph unicode="&#xe934;" glyph-name="letter-1" d="M896 768h-768c-8.487 0-16.626-3.371-22.628-9.372s-9.372-14.141-9.372-22.628v-544c0-16.976 6.743-33.252 18.745-45.255s28.281-18.745 45.255-18.745h704c16.976 0 33.252 6.741 45.255 18.745s18.745 28.279 18.745 45.255v544c0 8.487-3.374 16.626-9.375 22.628-5.996 6.001-14.137 9.372-22.625 9.372zM864 192h-704v471.24l330.36-302.838c5.903-5.422 13.626-8.431 21.64-8.431s15.737 3.009 21.64 8.431l330.36 302.838v-471.24z" />
<glyph unicode="&#xe935;" glyph-name="connect" d="M512 864c-82.277 0-162.706-24.398-231.117-70.109s-121.731-110.681-153.217-186.695c-31.486-76.014-39.724-159.658-23.673-240.354s55.671-154.817 113.85-212.998c58.179-58.18 132.303-97.798 212.999-113.852 80.696-16.048 164.34-7.811 240.355 23.671 76.015 31.488 140.982 84.81 186.692 153.219s70.11 148.838 70.11 231.117c-0.125 110.291-43.998 216.029-121.981 294.016-77.989 77.988-183.728 121.857-294.019 121.984zM825.441 608h-142.598c-17.96 65.884-48.225 127.773-89.202 182.4 49.505-11.893 95.858-34.351 135.873-65.834 40.021-31.483 72.755-71.247 95.966-116.566h-0.040zM864 448c0.028-32.463-4.454-64.774-13.318-96h-154.044c9.813 63.624 9.813 128.376 0 192h154.044c8.863-31.229 13.346-63.537 13.318-96zM512 788c47.917-51.301 83.49-112.865 103.999-180h-207.998c20.491 67.144 56.065 128.713 104 180zM408 288h207.998c-20.491-67.146-56.063-128.711-103.999-180.002-47.917 51.302-83.487 112.868-104 180.002zM392.4 352c-10.986 63.528-10.986 128.472 0 192h239.522c10.985-63.528 10.985-128.472 0-192h-239.522zM593.801 105.597c40.977 54.63 71.242 116.52 89.202 182.403h142.638c-23.228-45.335-55.99-85.111-96.034-116.594-40.044-31.488-86.426-53.936-135.964-65.809h0.159z" />
<glyph unicode="&#xe936;" glyph-name="phone-4" d="M927.522 259.681c-7.134-54.198-33.752-103.953-74.883-139.964-41.136-36.011-93.969-55.814-148.639-55.717-317.6 0-575.999 258.401-575.999 576.001-0.098 54.669 19.707 107.503 55.717 148.636s85.762 67.751 139.963 74.883c13.706 1.674 27.586-1.13 39.568-7.993s21.422-17.417 26.912-30.086l84.48-188.6v-0.48c4.204-9.698 5.939-20.287 5.053-30.82s-4.368-20.681-10.133-29.541c-0.72-1.080-1.48-2.080-2.28-3.080l-83.28-98.72c29.96-60.88 93.64-123.999 155.32-154.042l97.357 82.842c0.961 0.804 1.963 1.552 3.004 2.24 8.852 5.904 19.035 9.508 29.628 10.486 10.598 0.977 21.271-0.701 31.050-4.886l0.523-0.24 188.439-84.44c12.692-5.473 23.273-14.905 30.157-26.886 6.884-11.986 9.705-25.873 8.044-39.595z" />
<glyph unicode="&#xe937;" glyph-name="money" d="M976.959 719.998c-4.608 2.875-9.87 4.531-15.292 4.811s-10.826-0.825-15.707-3.21c-171.719-84-294.36-44.64-424-3.12-136 43.56-277 88.56-471.8-6.56-5.443-2.611-10.036-6.708-13.249-11.818s-4.916-11.025-4.911-17.062v-479.718c-0.001-5.433 1.38-10.775 4.012-15.519 2.632-4.75 6.429-8.75 11.034-11.628s9.866-4.534 15.288-4.818c5.422-0.279 10.827 0.819 15.706 3.203 171.72 84.002 294.36 44.641 424.2 3.123 76.963-24.604 155.361-49.681 244-49.681 68.358 0 142.922 14.876 227.641 56.24 5.382 2.623 9.916 6.707 13.090 11.787 3.174 5.074 4.864 10.945 4.87 16.93v479.721c0.046 5.444-1.291 10.809-3.897 15.59s-6.383 8.818-10.985 11.73zM928 233.318c-162.401-72.681-281.003-34.759-406.24 5.279-76.96 24.599-155.36 49.681-244 49.681-62.276-0.302-123.918-12.521-181.6-35.999v410.399c162.4 72.68 281 34.76 406.24-5.28 125.238-40.040 254.16-81.4 425.6-13.76v-410.32zM512 575.998c-25.316 0-50.063-7.507-71.113-21.572s-37.456-34.055-47.144-57.445c-9.688-23.389-12.223-49.125-7.284-73.955s17.13-47.634 35.031-65.537c17.901-17.903 40.709-30.094 65.538-35.032s50.566-2.406 73.955 7.282c23.39 9.688 43.381 26.095 57.444 47.144 14.063 21.052 21.572 45.8 21.572 71.115 0 33.948-13.488 66.505-37.49 90.51-24.007 24.005-56.562 37.49-90.51 37.49zM512 384c-12.658 0-25.032 3.755-35.557 10.784-10.524 7.033-18.728 17.028-23.571 28.723s-6.112 24.562-3.642 36.977c2.47 12.415 8.565 23.818 17.516 32.769s20.354 15.046 32.769 17.516c12.415 2.47 25.283 1.202 36.978-3.642s21.69-13.047 28.722-23.572c7.031-10.524 10.786-22.898 10.786-35.557 0-16.973-6.741-33.252-18.745-45.255-12.002-12.002-28.281-18.744-45.255-18.744zM224 575.998v-191.998c0-8.488-3.371-16.629-9.372-22.63s-14.141-9.37-22.628-9.37c-8.487 0-16.626 3.368-22.628 9.37s-9.372 14.143-9.372 22.63v191.998c0 8.487 3.371 16.626 9.372 22.628s14.141 9.372 22.628 9.372c8.487 0 16.626-3.371 22.628-9.372s9.372-14.14 9.372-22.628zM800 320v191.998c0 8.487 3.374 16.626 9.375 22.628 5.996 6.001 14.137 9.372 22.625 9.372s16.629-3.371 22.625-9.372c6.002-6.001 9.375-14.14 9.375-22.628v-191.998c0-8.488-3.374-16.629-9.375-22.63-5.996-6.002-14.137-9.37-22.625-9.37s-16.629 3.368-22.625 9.37c-6.002 6.002-9.375 14.143-9.375 22.63z" />
<glyph unicode="&#xe938;" glyph-name="bag" d="M864 736h-160v32c0 25.461-10.115 49.879-28.12 67.882-18 18.004-42.416 28.118-67.88 28.118h-192c-25.461 0-49.879-10.114-67.882-28.118s-28.118-42.421-28.118-67.882v-32h-160c-16.974 0-33.253-6.743-45.255-18.745s-18.745-28.281-18.745-45.255v-512c0-16.976 6.743-33.252 18.745-45.255s28.281-18.745 45.255-18.745h704c16.976 0 33.252 6.741 45.255 18.745s18.745 28.279 18.745 45.255v512c0 16.974-6.741 33.253-18.745 45.255s-28.279 18.745-45.255 18.745zM384 768c0 8.487 3.371 16.626 9.372 22.628s14.141 9.372 22.628 9.372h192c8.488 0 16.629-3.371 22.625-9.372 6.002-6.001 9.375-14.141 9.375-22.628v-32h-256v32zM864 672v-166.44c-108.009-58.791-229.029-89.582-352-89.56-122.968-0.022-243.983 30.754-352 89.52v166.48h704zM864 160h-704v273.44c109.597-53.61 229.994-81.463 352-81.44 122.010 0 242.404 27.864 352 81.48v-273.48zM416 512c0 8.487 3.371 16.626 9.372 22.628s14.141 9.372 22.628 9.372h128c8.488 0 16.629-3.371 22.625-9.372 6.002-6.001 9.375-14.141 9.375-22.628s-3.374-16.626-9.375-22.628c-5.996-6.001-14.137-9.372-22.625-9.372h-128c-8.487 0-16.626 3.371-22.628 9.372s-9.372 14.141-9.372 22.628z" />
</font>
</defs>
</svg>
